<?xml version="1.0" encoding="utf-8"?>
<!-- Generator: Adobe Illustrator 25.3.1, SVG Export Plug-In . SVG Version: 6.00 Build 0)  -->
<svg version="1.1" id="Layer_1" xmlns="http://www.w3.org/2000/svg" xmlns:xlink="http://www.w3.org/1999/xlink" x="0px" y="0px"
	 viewBox="0 0 202.9 212" style="enable-background:new 0 0 202.9 212;" xml:space="preserve">
<style type="text/css">
	.st0{fill:#4E362A;}
	.st1{fill:#4E352A;}
</style>
<g>
	<path class="st0" d="M62,182.4c0.5,2.1,2.4,3.5,5,3.5c2.5,0,4.3-1.1,4.3-3.1c0-1.4-1-2.4-3.2-3.2l-3.1-1.1
		c-5.1-1.7-5.9-4.8-5.9-6.8c0-4.2,3.6-6.9,8-6.9c4,0,6.9,2.1,8,5.5l-3.7,1.5c-0.8-2.4-2.5-3.1-4.3-3.1c-2,0-3.6,1-3.6,2.9
		c0,0.8,0.2,2.1,2.9,3l3.1,1.1c4.7,1.5,6.2,4.4,6.2,6.8c0,4.6-4,7.1-8.6,7.1c-4.7,0-8.4-2.7-9.1-6.5L62,182.4z"/>
	<path class="st0" d="M96,189.5h-4.2v-2.9c-1.1,2.3-3.1,3.3-5.6,3.3c-4.3,0-6.5-3.1-6.5-8.2V172h4.2v9.6c0,2.8,1.1,4.5,3.4,4.5
		c2,0,4.5-1.6,4.5-6.5V172H96V189.5z"/>
	<path class="st0" d="M103.1,183.9c0.4,1.7,2.1,2.5,3.7,2.5c1.2,0,2.6-0.4,2.6-1.8c0-0.9-0.8-1.4-1.9-1.9l-2.5-1
		c-3.5-1.3-4.4-3.3-4.4-4.9c0-3.2,2.8-5.3,6.4-5.3c2.2,0,5,0.8,6.1,3.9l-3.4,1.2c-0.4-1.4-1.7-1.8-2.7-1.8c-1.1,0-2.3,0.6-2.3,1.8
		c0,1,0.9,1.4,1.8,1.8l2.6,0.9c3.7,1.2,4.4,3.5,4.4,5c0,3.4-3.2,5.3-6.8,5.3c-2.8,0-6-1.2-7-4.5L103.1,183.9z"/>
	<path class="st0" d="M117.7,164.6h4.2V175c1.1-2.3,3.1-3.3,5.6-3.3c4.3,0,6.5,3.1,6.5,8.2v9.6h-4.2v-9.6c0-3-1.3-4.6-3.4-4.6
		c-2.1,0-4.4,1.5-4.4,5.5v8.7h-4.2V164.6z"/>
	<path class="st0" d="M141.3,164.2c1.6,0,2.8,1.2,2.8,2.7s-1.2,2.7-2.8,2.7c-1.6,0-2.8-1.1-2.8-2.7S139.7,164.2,141.3,164.2z
		 M139.2,189.5V172h4.2v17.4H139.2z"/>
</g>
<g id="MAKI_WITH_STICKS">
	<g id="maki_10_">
		<g id="maki_9_">
			<ellipse class="st1" cx="66.8" cy="91.8" rx="12.7" ry="7.9"/>
			<path class="st1" d="M97.7,93.2c0-0.1,0-0.2,0-0.4c0-5.6-3.4-10.8-9.5-14.6c-5.7-3.6-13.3-5.5-21.3-5.5c-8,0-15.6,2-21.3,5.5
				c-6.2,3.8-9.5,9-9.5,14.6c0,0.1,0,0.2,0,0.4v25c0,0.1,0,0.2,0,0.4c0,0.1,0,0.2,0,0.4v0.4c0,0.2,0,0.4,0.1,0.5
				c0.5,5.1,3.8,9.8,9.5,13.4c5.7,3.6,13.3,5.5,21.3,5.5c8,0,15.6-2,21.3-5.5c5.7-3.5,9-8.2,9.5-13.4c0-0.2,0.1-0.4,0.1-0.5v-0.4
				c0-0.1,0-0.2,0-0.4c0-0.1,0-0.2,0-0.4V93.2z M44.8,119.7c0,1.2-1,2.2-2.2,2.2c-1.2,0-2.2-1-2.2-2.2v-11.5c0-1.2,1-2.2,2.2-2.2
				c1.2,0,2.2,1,2.2,2.2V119.7z M66.8,107.4c-13.7,0-25.3-6.7-25.3-14.6c0-7.9,11.6-14.6,25.3-14.6c13.7,0,25.3,6.7,25.3,14.6
				C92.2,100.7,80.6,107.4,66.8,107.4z"/>
		</g>
		<g id="maki_6_">
			<path class="st1" d="M149.3,91.8c0,4.4-5.7,7.9-12.7,7.9c-7,0-12.7-3.5-12.7-7.9c0-4.4,5.7-7.9,12.7-7.9
				C143.6,84,149.3,87.5,149.3,91.8z"/>
			<path class="st1" d="M167.4,93.2c0-0.1,0-0.2,0-0.4c0-5.6-3.4-10.8-9.5-14.6c-5.7-3.6-13.3-5.5-21.3-5.5c-8,0-15.6,2-21.3,5.5
				c-6.2,3.8-9.5,9-9.5,14.6c0,0.1,0,0.2,0,0.4v25c0,0.1,0,0.2,0,0.4c0,0.1,0,0.2,0,0.4v0.4c0,0.2,0,0.4,0.1,0.5
				c0.5,5.1,3.8,9.8,9.5,13.4c5.7,3.6,13.3,5.5,21.3,5.5c8,0,15.6-2,21.3-5.5c5.7-3.5,9-8.2,9.5-13.4c0-0.2,0.1-0.4,0.1-0.5v-0.4
				c0-0.1,0-0.2,0-0.4c0-0.1,0-0.2,0-0.4V93.2z M114.6,119.7c0,1.2-1,2.2-2.2,2.2c-1.2,0-2.2-1-2.2-2.2v-11.5c0-1.2,1-2.2,2.2-2.2
				c1.2,0,2.2,1,2.2,2.2V119.7z M136.6,107.4c-13.7,0-25.3-6.7-25.3-14.6c0-7.9,11.6-14.6,25.3-14.6c13.7,0,25.3,6.7,25.3,14.6
				C161.9,100.7,150.3,107.4,136.6,107.4z"/>
		</g>
	</g>
	<g id="sticks_1_">
		<path class="st1" d="M168.8,10.2L20.7,67.3c-0.3,0.1-0.5,0.3-0.6,0.6c-0.1,0.3-0.1,0.6,0,0.9l1.3,3.2c0.2,0.6,0.9,0.9,1.5,0.7
			l148.1-57.1c0.3-0.1,0.5-0.3,0.6-0.6c0.1-0.1,0.1-0.3,0.1-0.5c0-0.1,0-0.3-0.1-0.4l-1.3-3.2C170.1,10.3,169.4,10,168.8,10.2z"/>
		<g>
			<path class="st1" d="M68.5,45.2h-45c-0.6,0-1.2,0.5-1.2,1.2v3.5c0,0.6,0.5,1.2,1.2,1.2h29.9L68.5,45.2z"/>
			<path class="st1" d="M88.9,51h93.3c0.6,0,1.2-0.5,1.2-1.2v-3.5c0-0.6-0.5-1.2-1.2-1.2H104L88.9,51z"/>
		</g>
	</g>
</g>
</svg>
