<?xml version="1.0" encoding="utf-8"?>
<!-- Generator: Adobe Illustrator 25.3.1, SVG Export Plug-In . SVG Version: 6.00 Build 0)  -->
<svg version="1.1" id="Layer_1" xmlns="http://www.w3.org/2000/svg" xmlns:xlink="http://www.w3.org/1999/xlink" x="0px" y="0px"
	 viewBox="0 0 316.2 144" style="enable-background:new 0 0 316.2 144;" xml:space="preserve">
<style type="text/css">
	.st0{fill:#4E352A;}
	.st1{fill-rule:evenodd;clip-rule:evenodd;fill:#4E352A;}
</style>
<g>
	<path class="st0" d="M170.7,47.1c-0.6,0.3-2.1,0.7-3.9,0.7c-5.3,0-8-3.3-8-7.7c0-5.2,3.7-8.1,8.4-8.1c1.8,0,3.1,0.4,3.8,0.7
		l-0.7,2.7c-0.7-0.3-1.7-0.6-2.9-0.6c-2.7,0-4.9,1.7-4.9,5.1c0,3.1,1.8,5,4.9,5c1.1,0,2.2-0.2,2.9-0.5L170.7,47.1z"/>
	<path class="st0" d="M177.5,47.8c-3.2,0-5.7-2.1-5.7-5.7c0-3.6,2.4-5.9,5.9-5.9c3.4,0,5.6,2.3,5.6,5.7
		C183.3,45.9,180.5,47.8,177.5,47.8L177.5,47.8z M177.6,45.3c1.4,0,2.2-1.3,2.2-3.3c0-1.6-0.6-3.3-2.2-3.3c-1.6,0-2.3,1.7-2.3,3.3
		C175.3,43.9,176.1,45.3,177.6,45.3L177.6,45.3z"/>
	<path class="st0" d="M185.5,39.9c0-1.4,0-2.5-0.1-3.5h3l0.2,1.5h0.1c0.5-0.7,1.6-1.8,3.4-1.8c2.3,0,4,1.5,4,4.8v6.6h-3.5v-6.1
		c0-1.4-0.5-2.4-1.7-2.4c-1,0-1.5,0.7-1.8,1.3c-0.1,0.2-0.1,0.6-0.1,0.9v6.4h-3.5V39.9z"/>
	<path class="st0" d="M202.5,33.4v3h2.5V39h-2.5v4c0,1.3,0.3,1.9,1.4,1.9c0.5,0,0.7,0,1-0.1l0,2.6c-0.4,0.2-1.3,0.3-2.2,0.3
		c-1.1,0-2-0.4-2.6-1c-0.6-0.7-1-1.7-1-3.3V39h-1.5v-2.6h1.5v-2.1L202.5,33.4z"/>
	<path class="st0" d="M207,40.1c0-1.6,0-2.7-0.1-3.7h2.9l0.1,2.1h0.1c0.6-1.6,1.9-2.3,3-2.3c0.3,0,0.5,0,0.7,0.1v3.2
		c-0.3,0-0.6-0.1-1-0.1c-1.3,0-2.1,0.7-2.4,1.7c-0.1,0.2-0.1,0.5-0.1,0.8v5.6H207L207,40.1z"/>
	<path class="st0" d="M220.5,47.8c-3.2,0-5.7-2.1-5.7-5.7c0-3.6,2.4-5.9,5.9-5.9c3.4,0,5.7,2.3,5.7,5.7
		C226.4,45.9,223.5,47.8,220.5,47.8L220.5,47.8z M220.6,45.3c1.4,0,2.2-1.3,2.2-3.3c0-1.6-0.6-3.3-2.2-3.3c-1.6,0-2.3,1.7-2.3,3.3
		C218.3,43.9,219.1,45.3,220.6,45.3L220.6,45.3z"/>
	<rect x="228.5" y="31.4" class="st0" width="3.5" height="16.1"/>
	<path class="st0" d="M242.9,32.2V41c0,2.7,1,4,2.8,4c1.8,0,2.8-1.3,2.8-4v-8.8h3.5v8.6c0,4.7-2.4,7-6.4,7c-3.9,0-6.1-2.2-6.1-7
		v-8.5H242.9z"/>
	<path class="st0" d="M254.7,39.9c0-1.4,0-2.5-0.1-3.5h3l0.2,1.5h0.1c0.5-0.7,1.6-1.8,3.4-1.8c2.3,0,4,1.5,4,4.8v6.6h-3.4v-6.1
		c0-1.4-0.5-2.4-1.7-2.4c-1,0-1.5,0.7-1.8,1.3c-0.1,0.2-0.1,0.6-0.1,0.9v6.4h-3.5V39.9z"/>
	<path class="st0" d="M269.7,35c-1.2,0-1.9-0.8-1.9-1.8c0-1,0.8-1.8,2-1.8s1.9,0.8,1.9,1.8C271.7,34.1,271,35,269.7,35L269.7,35z
		 M268,36.4h3.5v11.1H268V36.4z"/>
	<path class="st0" d="M279.4,47.8c-3.2,0-5.7-2.1-5.7-5.7c0-3.6,2.4-5.9,5.9-5.9c3.4,0,5.7,2.3,5.7,5.7
		C285.2,45.9,282.3,47.8,279.4,47.8L279.4,47.8z M279.4,45.3c1.4,0,2.2-1.3,2.2-3.3c0-1.6-0.6-3.3-2.2-3.3c-1.6,0-2.3,1.7-2.3,3.3
		C277.2,43.9,278,45.3,279.4,45.3L279.4,45.3z"/>
	<path class="st0" d="M287.3,39.9c0-1.4,0-2.5-0.1-3.5h3l0.2,1.5h0.1c0.5-0.7,1.6-1.8,3.4-1.8c2.3,0,4,1.5,4,4.8v6.6h-3.5v-6.1
		c0-1.4-0.5-2.4-1.8-2.4c-0.9,0-1.5,0.7-1.8,1.3c-0.1,0.2-0.1,0.6-0.1,0.9v6.4h-3.5V39.9z"/>
	<polygon class="st0" points="159.5,56.6 168.8,56.6 168.8,59.4 162.9,59.4 162.9,62.9 168.4,62.9 168.4,65.7 162.9,65.7 
		162.9,71.9 159.5,71.9 	"/>
	<path class="st0" d="M179.8,69.2c0,1,0,2.1,0.2,2.7h-3.1l-0.2-1.1h-0.1c-0.7,0.9-1.9,1.4-3.2,1.4c-2.3,0-3.6-1.6-3.6-3.4
		c0-2.9,2.6-4.2,6.5-4.2v-0.1c0-0.6-0.3-1.4-2-1.4c-1.1,0-2.3,0.4-3.1,0.8l-0.6-2.2c0.8-0.4,2.3-1,4.3-1c3.7,0,4.9,2.2,4.9,4.8V69.2
		z M176.5,66.7c-1.8,0-3.2,0.4-3.2,1.7c0,0.9,0.6,1.3,1.4,1.3c0.8,0,1.6-0.6,1.8-1.3c0-0.2,0.1-0.4,0.1-0.6V66.7z"/>
	<path class="st0" d="M184.4,59.4c-1.2,0-1.9-0.8-1.9-1.8c0-1,0.8-1.8,1.9-1.8s1.9,0.8,1.9,1.8C186.4,58.5,185.7,59.4,184.4,59.4
		L184.4,59.4z M182.7,60.8h3.5v11.1h-3.5V60.8z"/>
	<path class="st0" d="M189.1,64.5c0-1.6,0-2.7-0.1-3.7h2.9l0.1,2.1h0.1c0.6-1.6,1.9-2.3,3-2.3c0.3,0,0.5,0,0.7,0.1v3.3
		c-0.3,0-0.6-0.1-1-0.1c-1.3,0-2.1,0.6-2.4,1.7c0,0.2-0.1,0.5-0.1,0.8v5.6h-3.5L189.1,64.5z"/>
	<path class="st0" d="M214,71.5c-0.6,0.3-2.1,0.7-3.9,0.7c-5.3,0-8-3.3-8-7.7c0-5.2,3.7-8.1,8.3-8.1c1.8,0,3.1,0.4,3.8,0.7l-0.7,2.7
		c-0.7-0.3-1.7-0.6-2.9-0.6c-2.7,0-4.8,1.7-4.8,5.1c0,3.1,1.8,5,4.9,5c1.1,0,2.2-0.2,2.9-0.5L214,71.5z"/>
	<path class="st0" d="M216.2,55.8h3.5v6.4h0c0.4-0.5,0.8-0.9,1.4-1.2c0.5-0.3,1.2-0.4,1.8-0.4c2.2,0,3.9,1.5,3.9,4.9v6.5h-3.4v-6.1
		c0-1.4-0.5-2.4-1.8-2.4c-0.9,0-1.5,0.6-1.7,1.2c-0.1,0.2-0.1,0.5-0.1,0.8v6.6h-3.5V55.8z"/>
	<path class="st0" d="M234.8,72.1c-3.2,0-5.7-2.1-5.7-5.7c0-3.6,2.4-5.9,5.9-5.9c3.4,0,5.6,2.3,5.6,5.7
		C240.6,70.3,237.8,72.1,234.8,72.1L234.8,72.1z M234.9,69.7c1.4,0,2.2-1.3,2.2-3.3c0-1.6-0.6-3.3-2.2-3.3c-1.6,0-2.3,1.7-2.3,3.3
		C232.6,68.2,233.4,69.7,234.9,69.7L234.9,69.7z"/>
	<path class="st0" d="M244.6,59.4c-1.2,0-1.9-0.8-1.9-1.8c0-1,0.8-1.8,1.9-1.8c1.2,0,1.9,0.8,1.9,1.8
		C246.6,58.5,245.8,59.4,244.6,59.4L244.6,59.4z M242.9,60.8h3.4v11.1h-3.4V60.8z"/>
	<path class="st0" d="M257.6,71.6c-0.6,0.3-1.8,0.5-3.1,0.5c-3.6,0-5.9-2.2-5.9-5.7c0-3.3,2.2-5.9,6.4-5.9c0.9,0,1.9,0.2,2.6,0.4
		l-0.6,2.6c-0.4-0.2-1-0.3-1.9-0.3c-1.8,0-3,1.3-3,3.1c0,2,1.4,3.1,3,3.1c0.8,0,1.5-0.1,2-0.4L257.6,71.6z"/>
	<path class="st0" d="M262.1,67.4c0.1,1.4,1.5,2.1,3.1,2.1c1.2,0,2.1-0.2,3.1-0.5l0.5,2.4c-1.1,0.5-2.5,0.7-4,0.7
		c-3.8,0-5.9-2.2-5.9-5.7c0-2.8,1.8-5.9,5.6-5.9c3.6,0,4.9,2.8,4.9,5.5c0,0.6-0.1,1.1-0.1,1.4L262.1,67.4z M266.2,65.1
		c0-0.8-0.4-2.2-1.9-2.2c-1.5,0-2.1,1.3-2.2,2.2H266.2z"/>
	<path class="st0" d="M159.4,91c0.8,0.4,2,0.8,3.3,0.8c1.4,0,2.1-0.6,2.1-1.4c0-0.8-0.6-1.3-2.2-1.8c-2.2-0.8-3.6-2-3.6-3.9
		c0-2.2,1.9-3.9,5-3.9c1.5,0,2.6,0.3,3.3,0.7l-0.7,2.4c-0.5-0.2-1.5-0.6-2.7-0.6c-1.3,0-1.9,0.6-1.9,1.3c0,0.8,0.7,1.2,2.4,1.9
		c2.3,0.9,3.4,2.1,3.4,3.9c0,2.2-1.7,4.1-5.3,4.1c-1.5,0-3-0.4-3.7-0.8L159.4,91z"/>
	<path class="st0" d="M174.3,94.2c-2.8,0-4.9-1.8-4.9-4.9c0-3.1,2-5,5.1-5c2.9,0,4.9,2,4.9,4.9C179.3,92.6,176.8,94.2,174.3,94.2
		L174.3,94.2z M174.3,92.1c1.2,0,1.9-1.2,1.9-2.9c0-1.4-0.6-2.8-1.9-2.8c-1.4,0-1.9,1.4-1.9,2.9C172.4,90.9,173,92.1,174.3,92.1
		L174.3,92.1z"/>
	<path class="st0" d="M188.4,93.8c-0.5,0.2-1.5,0.4-2.6,0.4c-3.1,0-5-1.9-5-4.9c0-2.8,1.9-5.1,5.4-5.1c0.8,0,1.6,0.1,2.3,0.4
		l-0.5,2.2c-0.4-0.1-0.9-0.3-1.7-0.3c-1.6,0-2.6,1.1-2.5,2.7c0,1.8,1.2,2.7,2.6,2.7c0.7,0,1.2-0.1,1.7-0.3L188.4,93.8z"/>
	<path class="st0" d="M191.7,83.3c-1,0-1.6-0.7-1.6-1.6c0-0.9,0.7-1.6,1.7-1.6c1,0,1.6,0.7,1.6,1.6
		C193.3,82.6,192.7,83.3,191.7,83.3L191.7,83.3z M190.2,84.5h2.9V94h-2.9V84.5z"/>
	<path class="st0" d="M203.6,91.7c0,0.9,0,1.8,0.1,2.3h-2.7l-0.2-1h0c-0.6,0.8-1.6,1.2-2.7,1.2c-1.9,0-3.1-1.4-3.1-2.9
		c0-2.5,2.2-3.6,5.6-3.6v-0.1c0-0.5-0.3-1.2-1.7-1.2c-1,0-2,0.3-2.6,0.7l-0.5-1.9c0.6-0.4,2-0.9,3.7-0.9c3.2,0,4.1,1.9,4.1,4.1V91.7
		z M200.7,89.5c-1.5,0-2.8,0.4-2.8,1.5c0,0.8,0.5,1.1,1.2,1.1c0.7,0,1.3-0.5,1.5-1.1c0-0.2,0.1-0.3,0.1-0.5V89.5z"/>
	<rect x="206.1" y="80.2" class="st0" width="2.9" height="13.8"/>
	<path class="st0" d="M223.5,91.7c0,0.9,0,1.8,0.2,2.3H221l-0.2-1h-0.1c-0.6,0.8-1.6,1.2-2.7,1.2c-1.9,0-3.1-1.4-3.1-2.9
		c0-2.5,2.2-3.6,5.6-3.6v-0.1c0-0.5-0.3-1.2-1.7-1.2c-1,0-2,0.3-2.6,0.7l-0.5-1.9c0.7-0.4,2-0.9,3.7-0.9c3.2,0,4.2,1.9,4.2,4.1V91.7
		z M220.7,89.5c-1.6,0-2.8,0.4-2.8,1.5c0,0.8,0.5,1.1,1.2,1.1c0.7,0,1.3-0.5,1.5-1.1c0-0.2,0.1-0.3,0.1-0.5V89.5z"/>
	<path class="st0" d="M226,87.5c0-1.2,0-2.2-0.1-3h2.6l0.1,1.3h0.1c0.4-0.6,1.3-1.5,2.9-1.5c1.9,0,3.4,1.3,3.4,4.1V94h-2.9v-5.3
		c0-1.2-0.4-2.1-1.5-2.1c-0.8,0-1.3,0.6-1.5,1.1c-0.1,0.2-0.1,0.5-0.1,0.7V94H226V87.5z"/>
	<path class="st0" d="M246.8,80.2v10.9c0,1.1,0,2.2,0.1,2.8h-2.6l-0.1-1.4H244c-0.6,1.1-1.7,1.6-3,1.6c-2.2,0-4.1-1.9-4.1-4.9
		c0-3.2,2-5.1,4.2-5.1c1.2,0,2.1,0.4,2.5,1.1h0v-5.2H246.8z M243.8,88.5c0-0.2,0-0.4,0-0.5c-0.2-0.8-0.8-1.4-1.7-1.4
		c-1.4,0-2,1.2-2,2.7c0,1.6,0.8,2.6,2,2.6c0.8,0,1.5-0.6,1.7-1.4c0-0.2,0.1-0.4,0.1-0.7V88.5z"/>
	<polygon class="st0" points="253.5,80.9 261.5,80.9 261.5,83.3 256.4,83.3 256.4,86.3 261.1,86.3 261.1,88.7 256.4,88.7 256.4,94 
		253.5,94 	"/>
	<path class="st0" d="M270.9,91.7c0,0.9,0,1.8,0.1,2.3h-2.6l-0.2-1h-0.1c-0.6,0.8-1.6,1.2-2.7,1.2c-1.9,0-3.1-1.4-3.1-2.9
		c0-2.5,2.2-3.6,5.6-3.6v-0.1c0-0.5-0.3-1.2-1.7-1.2c-1,0-2,0.3-2.6,0.7l-0.5-1.9c0.7-0.4,2-0.9,3.7-0.9c3.2,0,4.1,1.9,4.1,4.1V91.7
		z M268,89.5c-1.6,0-2.8,0.4-2.8,1.5c0,0.8,0.5,1.1,1.2,1.1c0.7,0,1.3-0.5,1.5-1.1c0-0.2,0.1-0.3,0.1-0.5V89.5z"/>
	<path class="st0" d="M274.9,83.3c-1,0-1.6-0.7-1.6-1.6c0-0.9,0.7-1.6,1.7-1.6c1,0,1.6,0.7,1.6,1.6
		C276.5,82.6,275.9,83.3,274.9,83.3L274.9,83.3z M273.4,84.5h2.9V94h-2.9V84.5z"/>
	<path class="st0" d="M278.9,87.6c0-1.4,0-2.3-0.1-3.1h2.5l0.1,1.8h0.1c0.5-1.4,1.6-2,2.6-2c0.3,0,0.4,0,0.6,0.1v2.8
		c-0.3,0-0.5-0.1-0.8-0.1c-1.1,0-1.8,0.6-2,1.5c0,0.2-0.1,0.4-0.1,0.7V94h-3L278.9,87.6z"/>
	<polygon class="st0" points="161.8,102.4 158.3,102.4 158.3,99.9 168.3,99.9 168.3,102.4 164.8,102.4 164.8,113 161.8,113 	"/>
	<path class="st0" d="M168.9,106.6c0-1.4,0-2.3-0.1-3.1h2.5l0.1,1.8h0.1c0.5-1.4,1.6-2,2.6-2c0.3,0,0.4,0,0.6,0.1v2.8
		c-0.2,0-0.5-0.1-0.8-0.1c-1.1,0-1.8,0.6-2,1.5c0,0.2,0,0.4,0,0.7v4.8h-2.9L168.9,106.6z"/>
	<path class="st0" d="M184.1,110.7c0,0.9,0,1.8,0.2,2.3h-2.7l-0.2-0.9h0c-0.6,0.8-1.6,1.2-2.7,1.2c-1.9,0-3.1-1.4-3.1-2.9
		c0-2.5,2.2-3.6,5.6-3.6v-0.1c0-0.5-0.3-1.2-1.7-1.2c-1,0-2,0.3-2.6,0.7l-0.5-1.9c0.7-0.4,2-0.9,3.7-0.9c3.2,0,4.2,1.9,4.2,4.1
		V110.7z M181.3,108.5c-1.6,0-2.8,0.4-2.8,1.5c0,0.7,0.5,1.1,1.2,1.1c0.7,0,1.3-0.5,1.5-1.1c0.1-0.2,0.1-0.3,0.1-0.5V108.5z"/>
	<path class="st0" d="M195.8,99.2v10.9c0,1.1,0.1,2.2,0.1,2.8h-2.6l-0.1-1.4h-0.1c-0.6,1.1-1.8,1.6-3,1.6c-2.2,0-4.1-1.9-4.1-4.9
		c0-3.2,2-5.1,4.2-5.1c1.2,0,2.1,0.4,2.5,1.1h0v-5.1H195.8z M192.9,107.5c0-0.2,0-0.4,0-0.6c-0.2-0.8-0.8-1.4-1.7-1.4
		c-1.4,0-2,1.2-2,2.7c0,1.6,0.8,2.6,2,2.6c0.9,0,1.6-0.6,1.7-1.4c0-0.2,0.1-0.4,0.1-0.7V107.5z"/>
	<path class="st0" d="M200.6,109.1c0.1,1.2,1.3,1.8,2.7,1.8c1,0,1.8-0.1,2.6-0.4l0.4,2c-1,0.4-2.2,0.6-3.4,0.6
		c-3.2,0-5.1-1.9-5.1-4.8c0-2.4,1.5-5.1,4.8-5.1c3.1,0,4.2,2.4,4.2,4.7c0,0.5-0.1,0.9-0.1,1.2L200.6,109.1z M204.1,107.1
		c0-0.7-0.3-1.9-1.7-1.9c-1.3,0-1.8,1.2-1.8,1.9H204.1z"/>
	<path class="st0" d="M213,109.9c0.8,0.4,2,0.8,3.3,0.8c1.4,0,2.1-0.6,2.1-1.4c0-0.8-0.6-1.3-2.2-1.8c-2.2-0.8-3.6-2-3.6-3.9
		c0-2.2,1.9-3.9,4.9-3.9c1.5,0,2.6,0.3,3.3,0.7l-0.7,2.4c-0.5-0.2-1.4-0.6-2.7-0.6c-1.3,0-1.9,0.6-1.9,1.3c0,0.8,0.7,1.2,2.4,1.8
		c2.3,0.9,3.4,2.1,3.4,3.9c0,2.2-1.7,4.1-5.3,4.1c-1.5,0-3-0.4-3.7-0.8L213,109.9z"/>
	<path class="st0" d="M226.7,100.9v2.6h2.1v2.2h-2.1v3.5c0,1.1,0.3,1.7,1.2,1.7c0.4,0,0.6,0,0.9-0.1l0,2.2c-0.4,0.1-1.1,0.3-1.9,0.3
		c-0.9,0-1.7-0.3-2.2-0.8c-0.5-0.6-0.8-1.5-0.8-2.8v-3.9h-1.3v-2.2h1.3v-1.8L226.7,100.9z"/>
	<path class="st0" d="M238.6,110.7c0,0.9,0,1.8,0.1,2.3h-2.6l-0.2-0.9h0c-0.6,0.8-1.6,1.2-2.7,1.2c-1.9,0-3.1-1.4-3.1-2.9
		c0-2.5,2.2-3.6,5.6-3.6v-0.1c0-0.5-0.3-1.2-1.7-1.2c-1,0-2,0.3-2.6,0.7l-0.5-1.9c0.7-0.4,2-0.9,3.7-0.9c3.2,0,4.2,1.9,4.2,4.1
		V110.7z M235.7,108.5c-1.5,0-2.8,0.4-2.8,1.5c0,0.7,0.5,1.1,1.2,1.1c0.7,0,1.3-0.5,1.5-1.1c0-0.2,0-0.3,0-0.5V108.5z"/>
	<path class="st0" d="M241.1,106.5c0-1.2,0-2.2-0.1-3h2.6l0.1,1.3h0.1c0.4-0.6,1.3-1.5,2.9-1.5c1.9,0,3.4,1.3,3.4,4.1v5.6h-2.9v-5.3
		c0-1.2-0.4-2.1-1.5-2.1c-0.8,0-1.3,0.6-1.5,1.1c-0.1,0.2-0.1,0.5-0.1,0.7v5.5h-2.9V106.5z"/>
	<path class="st0" d="M261.8,99.2v10.9c0,1.1,0,2.2,0.1,2.8h-2.6l-0.1-1.4h0c-0.6,1.1-1.8,1.6-3,1.6c-2.2,0-4-1.9-4-4.9
		c0-3.2,2-5.1,4.2-5.1c1.2,0,2.1,0.4,2.5,1.1h0v-5.1H261.8z M258.8,107.5c0-0.2,0-0.4,0-0.6c-0.2-0.8-0.8-1.4-1.7-1.4
		c-1.4,0-2,1.2-2,2.7c0,1.6,0.8,2.6,2,2.6c0.8,0,1.5-0.6,1.7-1.4c0-0.2,0.1-0.4,0.1-0.7V107.5z"/>
	<path class="st0" d="M272.2,110.7c0,0.9,0,1.8,0.2,2.3h-2.7l-0.2-0.9h-0.1c-0.6,0.8-1.6,1.2-2.7,1.2c-1.9,0-3.1-1.4-3.1-2.9
		c0-2.5,2.2-3.6,5.6-3.6v-0.1c0-0.5-0.3-1.2-1.7-1.2c-1,0-2,0.3-2.6,0.7l-0.5-1.9c0.7-0.4,2-0.9,3.7-0.9c3.2,0,4.1,1.9,4.1,4.1
		V110.7z M269.4,108.5c-1.6,0-2.8,0.4-2.8,1.5c0,0.7,0.5,1.1,1.2,1.1c0.7,0,1.3-0.5,1.5-1.1c0-0.2,0.1-0.3,0.1-0.5V108.5z"/>
	<path class="st0" d="M274.7,106.6c0-1.4,0-2.3-0.1-3.1h2.5l0.1,1.8h0.1c0.5-1.4,1.6-2,2.6-2c0.3,0,0.4,0,0.6,0.1v2.8
		c-0.3,0-0.5-0.1-0.8-0.1c-1.1,0-1.8,0.6-2,1.5c0,0.2-0.1,0.4-0.1,0.7v4.8h-2.9L274.7,106.6z"/>
	<path class="st0" d="M291.3,99.2v10.9c0,1.1,0,2.2,0.1,2.8h-2.6l-0.1-1.4h-0.1c-0.6,1.1-1.7,1.6-3,1.6c-2.3,0-4.1-1.9-4.1-4.9
		c0-3.2,2-5.1,4.2-5.1c1.2,0,2.1,0.4,2.5,1.1h0v-5.1H291.3z M288.4,107.5c0-0.2,0-0.4,0-0.6c-0.2-0.8-0.8-1.4-1.7-1.4
		c-1.4,0-2,1.2-2,2.7c0,1.6,0.8,2.6,2,2.6c0.9,0,1.6-0.6,1.7-1.4c0-0.2,0.1-0.4,0.1-0.7V107.5z"/>
	<path class="st1" d="M98,59.1c1.2,0.9,1.8,2.4,3.9,2.4c-1-2.7,2.1-1.5,2.9-2.4c-0.6-3.7-4.2,1.4-4.8-1.9
		C99.9,58.5,98.6,58.4,98,59.1"/>
	<path class="st1" d="M139.7,64.4c-2.2-8.9-3.8-18.5-7.8-25.7c-2.2-3.1-4.3-6.4-6.8-9.2c-2.6-2.3-4.8-4.9-7.3-7.3
		c-1-0.9-2.6-1.3-2.4-3.4v-0.5c-1.4-1.4-1.7-3.8-3.9-4.4v-0.5c-5-3-9.6,1.8-15.1,0h-9.7c-5.9,0.1-10.7,1.2-15,2.9
		c-2.6,1.7-6.3,2.4-9.2,3.9c-1.7,1.1-3.2,2.3-5.3,2.9c-1.3,1.7-4.3,1.5-4.9,3.9c3.5,0.4,5.6-3.1,8.7-1.5c2.1,0,2.9-1.3,4.8-1.5
		c0.5-0.7,1.3-1,1.9-1.4c0-2.3,2.1-2.5,4.4-2.4c2.1-1.2,5.6-0.9,8.3-1.5c1.6-0.8,6.6-0.8,8.2,0c0.4,0.1,1,0,1,0.5
		c3.5-0.2,5.2,1.6,8.7,1.4c-0.2,2.5,1.2,3.4,1.5,5.3c1.2,1,2.5,2,3.9,2.9c3.6,0,7.6,0.4,8.7-1.9c2.2,2.2,5.2,3.6,7.3,5.8
		c0.6,0.5,1.8,0.5,1.9,1.5c1.3,0.9,2.5,2.1,3.4,3.4c3.5,5.4,9,9.1,7.8,18c0.9,1.5,1.5,3.3,2.9,4.4c0.9,1.4,1.3,3.2,1.9,4.8
		c0.7,0.5,1,1.3,1.5,1.9C140.3,66.9,139.5,65.1,139.7,64.4"/>
	<path class="st1" d="M48,90.2c1.8,3,4.3,5.4,7.3,7.3c1.4,0.8,2.6,1.9,4.4,2.4c0.3-1.5-0.5-1.8-0.5-2.9c-0.3-7.3-6.1-9.1-6.8-16
		c1.1-1.4,2-2.9,2.4-4.8c-0.4-1.1-1.7-1.2-2.4-1.9c-0.3-0.7-0.8-1.2-1.5-1.5v-1c-1-3.5,1.1-3.9,2.4-1.5c-1.3,1.5,0.2,3.4,1.5,3.9
		c4.2-1.6,4.8,2,9.2,1.5v0.5c0.2,1.4,0.8,2.4,1.9,2.9v0.5h0.5c2.6-1.1,2.7,4,4.8,4.9c1.1,0.5,2.9,0.3,3.9,1c1,0.8,2,1.6,3.4,1.9
		c-0.1,1.9-1.4,2.4-2.4,3.4c-0.2,1.6-0.5,3.1-1.5,3.9c-1,2.4-2.9,1.9-4.9,2.4c0.1,0.9-0.6,1-0.5,1.9c-2.6-0.8-2.1,1.5-3.9,1.5v-0.5
		c-4.1,1.7,2,3.5,3.9,3.9c3.6,0.3,7.1,0.7,11.2,0.5c6.9-1.3,12.5-4,17.5-7.3c1.3-0.9,2.5-2.1,3.4-3.4c-0.9,0.2-1.2,1.1-2.4,1
		c-0.4-1.6,0.8-1.5,1-2.4h0.5c0.1-0.7-0.2-1.8,0.5-1.9v-0.5c-1.4-1.3,0.9-3.7,1-6.3c0-1.9-2.6-3.4-0.5-4.4c-2.9,0.2-4.7,1.5-7.3,1.9
		h-1.9c-2.2-2.1-4.7-4.5-3.4-8.7c-0.6-0.7-0.6-1.2,0-1.9c1.4-2.2,1.9-5.2,3.4-7.3c-1.6-0.2-4-4.2-1.5-5.3h1c0.9-1.1-1.5-3-2.9-3.4
		h-0.5c-0.3,1.4-0.8-0.8-1.5-0.5c1-1.6,0.4-2.4,1-3.9c2.1-0.1,2.5,1.4,3.4,2.4c2.6-1.3-0.8-3.3-1.9-3.9v-1c-0.7-1.6-3-5.2,1-4.8
		v-0.5c-0.9-1.8-5-0.5-4.9-3.4c-0.1-0.9-0.8-1.1-1.9-1v1.5c-2,1.6-1.4,3.4-1.9,5.8c-1.4,2-3.7,3.1-5.8,4.4c-2.1-1.8,0.4-5.8-1.5-7.3
		c-0.6,0.2-1.1,0.5-1.5,1c0.8,1.3,1.3,3.5,0,4.4c-0.6,0.6-1.7,0.6-2.9,0.5c-0.3,1.3,1,1,1,2h0.5v1c0.1,2.1,1.6,3,1.4,5.3
		c-1,1.1-2.2,0.1-2.9-0.5c-0.1-0.6-0.5-0.8-1-1c0,1.3,0.8,1,0,1.9c-3.8,1.6-4.4,1-8.3,3.4c0.2,1.8-1.8,1.5-2.9,1.9
		c0,1.2-0.3,2.3-1,2.9c-0.8,0-1.7,0.1-1.5-1c-0.8-1.2-0.2-4-2.4-3.9c-0.1,0.7-0.8,0.8-1,1.5c-1.2,0-0.8,1.8-1.5,2.4
		c-1.9,1.5,1.3,1.9,1.9,2.4c-0.1,1.2-0.7,1.9-1.9,1.9c-0.1-0.6-0.5-0.8-1-1c-5.5-3.5-1.7-14.9,1.9-18c2-1.9,4.4-3.3,5.8-5.8
		c1.2-1.2,2.9-1.9,3.9-3.4c0.9-0.7,2-1.3,3.4-1.4H65c0.3-0.7,1-0.9,1.9-1c3-0.6,10.3-1.8,15-0.5c0.2-1.5-1-1.5-2.4-1.5h-6.3
		c-2.7,0.7-6.3,0.5-8.3,1.9c-1.4,0.6-3.2,0.7-3.9,1.9c-2.1,0-2.7,1.5-4.4,1.9c-0.8,0.7-1.5,1.4-2.4,1.9c-2.1,1.7-4.1,3.7-5.8,5.8
		c-0.2,0.4-0.4,0.9-1,1c-0.4,1.4-0.8,2.8-1.9,3.4c-1.1,0.8-0.4,3.4-1.9,3.9C39.5,68.3,42.2,83.7,48,90.2 M83.5,40.7
		c0-0.6,1.3-0.6,1.5,0c0.2,0.7,0.7,0.9,0.5,1.9C83.5,43,82.3,41.8,83.5,40.7 M84.4,47.9c-0.9,0.1-0.3,1.6-1.5,1.5c0-1-1.3-0.6-1-1.9
		C81.6,45.7,84.7,46.8,84.4,47.9 M61.1,71.7c-1.8,0.3-1.9-1.1-3.4-1C57.9,67.9,61.3,69.9,61.1,71.7 M56.8,66.9c0,1,1.3,0.6,1,1.9
		c-1.9-0.1-1.9-2-3.4-2.4c0.3-1.5,1,0.5,2,0C56.3,66.7,56.4,66.9,56.8,66.9"/>
	<path class="st1" d="M64,47c-0.1,1.1,0.1,1.9,0.5,2.4c2,0.4,3.3-2.5,2.9-2.9C67,47.7,64.9,45.5,64,47"/>
	<path class="st1" d="M103.4,53.8c1-1,0-2.1-1-2.4h-1h-0.5c-1.5,1.1-0.9,3.6,1,3.9C101.6,54,102.1,53.5,103.4,53.8"/>
	<path class="st1" d="M96.6,60.1c-0.1-0.7-0.7-0.9-0.5-1.9c-0.2-0.7-0.6,0.2-1.5,0c0.2,1.9-0.1,3.1-1,3.9
		C94.9,61.7,95.5,60.6,96.6,60.1"/>
	<path class="st1" d="M126.2,77.1c-2.4,4.5-1.7,8.1-2.4,14.1c-0.2,1.9-1.7,4.8-2.4,5.8c-0.6,3.3-2.6,5.2-3.9,7.7
		c-1,2.5-2.8,4.3-4.8,5.8c-1.6,1.7-3.8,5.2-5.8,4.8c-4.4-2.5-10.7,0-11.7,3.9c-0.5,1.6-0.2,4-1,5.3h-1c-2,0.1-3.3,0.9-4.8,1.5
		c-1.6,1.2-4,1.6-6.3,2c0,0.3-0.1,0.6-0.5,0.5c-4.2,1.1-10.5,0.2-15.5,0.5c-3.4,0.3-3.2-2.9-5.8-3.4c-1.5,0.4-1.4-0.8-2.9-0.5
		c-2.6,0.5-4.7,0.1-6.8-1h-3.4c5.5,4.4,13.9,5.8,20.9,8.7c3.6,0.3,7.1,0.7,11.2,0.5c3.9,0.4,6.5-0.6,10.2-0.5
		c6.9-5.3,19.4,2.8,21.3-8.3c-0.5-4.2,2.6-4.8,4.4-6.8c4-4.3,6-10.5,9.2-15.5c-0.3-2.7,1.9-3,1.5-5.8h0.5c0.2-4.3,1.1-8,1.5-12.1
		c-0.3-2.1,0.3-3.2,0.5-4.9v-5.3C126.3,73.9,127.4,76.7,126.2,77.1"/>
	<path class="st1" d="M42.7,106.2c-2.5-0.8-3.3-3.5-7.3-2.9c-5.8-7.4-11.8-14.7-13.6-26.2c2.2-2.3,4.8-4.3,4.4-9.2
		c0-3.8-2-5.5-4.9-6.3c-0.3-0.1-1,0-1-0.5c0.8-11.1,5.2-21.8,10.7-29.1c6.9-1.3,7.8-8.7,11.6-13.1c-2.7,0.6-3.7,2.8-5.8,3.9
		c-5.2,3.5-9.9,7.6-13.1,13.1C19.3,43.1,15,50.6,13.6,61c-0.5,0-0.6-0.4-1-0.5c0.7,2.1-3.9,3.1-2.9,5.3v1c-1.6-0.3-1.6,5.2,0,4.9
		c5.8,6.8,8.9,16.3,14.1,23.8c2,4.5,5.7,7.2,9.7,9.7c5.4,3,9.5,7.3,15.5,9.7C48.2,110.7,43,110.9,42.7,106.2 M32,27.1
		c-1.9,2.3-4,4.4-6.3,6.3C27.6,31.1,29.7,29,32,27.1"/>
</g>
</svg>
