<?xml version="1.0" encoding="utf-8"?>
<!-- Generator: Adobe Illustrator 25.4.1, SVG Export Plug-In . SVG Version: 6.00 Build 0)  -->
<svg version="1.1" id="Layer_1" xmlns="http://www.w3.org/2000/svg" xmlns:xlink="http://www.w3.org/1999/xlink" x="0px" y="0px"
	 viewBox="0 0 202.9 212" style="enable-background:new 0 0 202.9 212;" xml:space="preserve">
<style type="text/css">
	.st0{fill:none;stroke:#4E352A;stroke-width:7.334;stroke-miterlimit:10;}
	.st1{fill:#4E352A;}
	.st2{fill:#4E362A;}
</style>
<g>
	<g>
		<path class="st0" d="M138.9,73.9H58.5c-0.7,0-1.2,0.6-1.2,1.2c0,7.2,0,42.7,0,42.7c0,14.5,11.7,26.3,26.3,26.3h30.3
			c14.5,0,26.3-11.7,26.3-26.3c0,0,0-35.4,0-42.7C140.1,74.5,139.6,73.9,138.9,73.9z"/>
		<path class="st1" d="M149.3,78.8h-6c-0.7,0-1.3,0.6-1.3,1.3V84c0,0.7,0.6,1.3,1.3,1.3h4.2c4.6,0,8.4,3.8,8.4,8.6v7.9
			c0,4.6-3.8,8.6-8.4,8.6h-4.2c-0.7,0-1.3,0.6-1.3,1.3v3.9c0,0.7,0.6,1.3,1.3,1.3h6c7.1,0,12.8-5.7,12.8-13V91.7
			C162,84.7,156.2,78.8,149.3,78.8z"/>
		<path class="st1" d="M91,61.2c-0.5,2.1-1.5,4-2.3,6c-0.2,0.6,0.6,1,1.2,0.6c5.9-3.4,7.8-9.3,5.9-14.8c-1.1-3.3-2.8-6.6-2.7-10
			c0.1-2.2,0.5-4.5,1.3-6.6c0.2-0.6-0.6-1-1.2-0.6c-2.8,1.6-5,4-5.6,6.7C85.8,49,92.7,54.6,91,61.2z"/>
		<path class="st1" d="M103.4,59.7c-0.6,2.4-1.7,4.8-2.8,7.2c-0.2,0.7,0.7,1.2,1.5,0.9c7.1-4.2,9.4-11.2,7.1-18
			c-1.3-4-3.4-7.9-3.3-12.2c0.1-2.7,0.6-5.5,1.6-8.1c0.2-0.6-0.7-1.2-1.5-0.9c-3.4,2-6,4.9-6.8,8.1C97.2,44.9,105.5,51.7,103.4,59.7
			z"/>
	</g>
</g>
<g>
	<path class="st2" d="M59.1,165.8c3.6,0,6.1,1.1,8.3,2.8l-1.8,3.3c-1.7-1.2-3.9-2.2-6.5-2.2c-5.5,0-8.7,3.8-8.7,8.5s3.2,8.5,8.7,8.5
		c2.6,0,4.8-0.9,6.5-2.2l1.8,3.3c-2.2,1.7-4.6,2.8-8.3,2.8c-8.2,0-13.1-5.7-13.1-12.4C46,171.5,50.9,165.8,59.1,165.8z"/>
	<path class="st2" d="M79.1,172.5c5.1,0,9.5,4.1,9.5,9.1s-4.4,9.1-9.5,9.1c-5,0-9.4-4-9.4-9.1C69.6,176.6,74,172.5,79.1,172.5z
		 M79.1,187.1c3,0,5.2-2.4,5.2-5.5c0-3-2.2-5.5-5.2-5.5c-2.9,0-5.2,2.4-5.2,5.5C73.9,184.7,76.1,187.1,79.1,187.1z"/>
	<path class="st2" d="M111,172.9h4.2v3.2H111v14.2h-4.3v-14.2h-9v14.2h-4.3v-14.2h-2.6v-3.2h2.6v-1.2c0-5.3,3.1-6.6,6.1-6.6
		c3.2,0,4.8,1.7,5.3,3.7l-3.4,1.2c-0.1-0.9-0.8-1.4-1.7-1.4c-1.1,0-1.9,0.8-1.9,2.5v1.8h9v-1.2c0-5.3,3.1-6.6,6.1-6.6
		c3.8,0,5.4,2.3,5.4,4.8c0,0.1,0,0.6-0.2,1h-3.4c0.1-0.2,0.1-0.4,0.1-0.6c0-1.1-0.7-1.7-1.7-1.7c-1.1,0-1.9,0.8-1.9,2.5v1.8H111z"/>
	<path class="st2" d="M135.2,187.3c-2.3,2.6-5.2,3.3-7.9,3.3c-6.3,0-10-4.1-10-9c0-5.1,4-9.2,9.5-9.2c4.7,0,9.2,3,9.2,9.7h-14.5
		c0,2.8,2.2,4.9,6,4.9c2.2,0,3.8-0.8,5.3-2.1L135.2,187.3z M121.8,179.3h9.9c-0.7-2.7-3-3.4-4.8-3.4
		C125,175.9,122.7,176.6,121.8,179.3z"/>
	<path class="st2" d="M156.6,187.3c-2.3,2.6-5.2,3.3-7.9,3.3c-6.3,0-10-4.1-10-9c0-5.1,4-9.2,9.5-9.2c4.7,0,9.2,3,9.2,9.7h-14.5
		c0,2.8,2.2,4.9,6,4.9c2.2,0,3.8-0.8,5.3-2.1L156.6,187.3z M143.1,179.3h9.9c-0.7-2.7-3-3.4-4.8-3.4
		C146.4,175.9,144,176.6,143.1,179.3z"/>
</g>
</svg>
