<?xml version="1.0" encoding="utf-8"?>
<!-- Generator: Adobe Illustrator 25.4.1, SVG Export Plug-In . SVG Version: 6.00 Build 0)  -->
<svg version="1.1" id="Layer_1" xmlns="http://www.w3.org/2000/svg" xmlns:xlink="http://www.w3.org/1999/xlink" x="0px" y="0px"
	 viewBox="0 0 202.9 212" style="enable-background:new 0 0 202.9 212;" xml:space="preserve">
<style type="text/css">
	.st0{fill:#4E352A;}
	.st1{enable-background:new    ;}
	.st2{fill:#4E362A;}
</style>
<g>
	<g>
		<path class="st0" d="M147.3,69.3c-3.8-22-23.1-38.3-45.6-38.3C79.1,31,59.8,47.3,56,69.3c-11.6,1.4-20.4,11.1-20.4,23.1
			c0,9.7,6.2,18.5,15.3,21.8c0.7,0.2,1.3,0.5,2,0.6c1.9,0.5,3.9,0.8,5.9,0.8c5.1,0,9.9-1.6,13.9-4.6c0.1-0.1,0.3-0.2,0.4-0.3
			c4.1,3.2,9.1,4.9,14.3,4.9c5.2,0,10.2-1.7,14.3-4.9c4.1,3.2,9.1,4.9,14.3,4.9c5.2,0,10.2-1.7,14.3-4.9c0.1,0.1,0.2,0.2,0.4,0.3
			c4,3,8.9,4.6,13.9,4.6c2,0,4-0.3,5.9-0.8c0.7-0.2,1.3-0.4,2-0.6c9.2-3.3,15.3-12.1,15.3-21.8C167.7,80.4,158.9,70.7,147.3,69.3z
			 M150.8,109.7c-2,0.7-4.1,1.1-6.3,1.1c-4,0-7.8-1.3-11-3.7c-0.6-0.4-1.1-0.9-1.6-1.4l-1.6-1.6l-1.7,1.6c-3.4,3.2-7.9,5-12.6,5
			s-9.2-1.8-12.6-5l-1.6-1.6l-1.6,1.6c-3.4,3.2-7.9,5-12.6,5s-9.2-1.8-12.6-5l-1.7-1.6l-1.6,1.6c-0.5,0.5-1,0.9-1.6,1.4
			c-3.2,2.4-7,3.7-11,3.7c-2.2,0-4.3-0.4-6.3-1.1c-7.3-2.6-12.1-9.6-12.1-17.3c0-10,7.8-18.1,17.8-18.4l2-0.1l0.3-2
			c2.7-20.6,20.4-36.1,41.2-36.1s38.5,15.5,41.2,36.1l0.3,2l2,0.1c10,0.3,17.8,8.4,17.8,18.4C162.9,100.1,158,107.1,150.8,109.7z"/>
	</g>
	<g>
		<g>
			<path class="st0" d="M74.8,70.9c-1.3,0-2.6-0.7-3.2-2c-0.4-0.9-0.5-1.8-0.2-2.7c0.3-0.9,0.9-1.7,1.8-2.1l5.4-2.7
				c1.8-0.9,3.9-0.2,4.8,1.6c0.4,0.9,0.5,1.8,0.2,2.7s-0.9,1.7-1.8,2.1l-5.4,2.7C75.9,70.8,75.4,70.9,74.8,70.9z"/>
		</g>
	</g>
	<g>
		<g>
			<path class="st0" d="M112.6,69.1l-6-0.8c-2-0.2-3.4-2.1-3.1-4s2.1-3.4,4-3.1l6,0.8c2,0.2,3.4,2.1,3.1,4
				C116.4,67.9,114.6,69.3,112.6,69.1z"/>
		</g>
	</g>
	<g>
		<g>
			<path class="st0" d="M112.1,95.4l-4.4-4.2c-1.4-1.4-1.5-3.7-0.1-5.1s3.7-1.5,5.1-0.1l4.4,4.2c1.4,1.4,1.5,3.7,0.1,5.1
				S113.5,96.7,112.1,95.4z"/>
		</g>
	</g>
	<g>
		<g>
			<path class="st0" d="M72.4,94.8l-5.3-3c-1.7-1-2.4-3.2-1.4-4.9c1-1.7,3.2-2.4,4.9-1.4l5.3,3c1.7,1,2.4,3.2,1.4,4.9
				C76.3,95.2,74.1,95.8,72.4,94.8z"/>
		</g>
	</g>
	<g>
		<g>
			<path class="st0" d="M125,61.1c-0.5-0.2-0.9-0.5-1.2-1l0,0l-3.9-4.7c-0.6-0.7-0.9-1.7-0.8-2.6c0.1-1,0.6-1.8,1.3-2.4
				c0.7-0.6,1.7-0.9,2.6-0.8c1,0.1,1.8,0.6,2.4,1.3l3.9,4.7c0.6,0.7,0.9,1.7,0.8,2.6c-0.1,1-0.6,1.8-1.3,2.4
				C127.7,61.5,126.2,61.7,125,61.1z"/>
		</g>
	</g>
	<g>
		<g>
			<path class="st0" d="M135.7,88.4l-5.8-1.8c-1.9-0.6-3-2.6-2.4-4.5s2.6-3,4.5-2.4l5.8,1.8c1.9,0.6,3,2.6,2.4,4.5
				C139.6,87.9,137.5,89,135.7,88.4z"/>
		</g>
	</g>
	<g>
		<g>
			<path class="st0" d="M91.7,52c-0.3,0-0.6,0-0.9-0.1c-0.9-0.2-1.7-0.8-2.2-1.6s-0.6-1.8-0.4-2.7s0.8-1.7,1.6-2.2l5.2-3.2
				c0.8-0.5,1.8-0.6,2.7-0.4c0.9,0.2,1.7,0.8,2.2,1.6s0.6,1.8,0.4,2.7s-0.8,1.7-1.6,2.2l-5.2,3.2C93,51.8,92.3,52,91.7,52z"/>
		</g>
	</g>
	<g>
		<g>
			<path class="st0" d="M97.8,77.9l-4.1,4.5c-1.3,1.5-3.6,1.6-5.1,0.2c-1.5-1.3-1.6-3.6-0.2-5.1l4.1-4.5c1.3-1.5,3.6-1.6,5.1-0.2
				C99,74.2,99.1,76.4,97.8,77.9z"/>
		</g>
	</g>
	<g>
		<path class="st0" d="M144.5,115.6c-5.1,0-9.9-1.6-13.9-4.6c-0.1-0.1-0.3-0.2-0.4-0.3c-4.1,3.2-9.1,4.9-14.3,4.9
			c-5.2,0-10.2-1.7-14.3-4.9c-4.1,3.2-9.1,4.9-14.3,4.9c-5.2,0-10.2-1.7-14.3-4.9c-0.1,0.1-0.3,0.2-0.4,0.3c-4,3-8.9,4.6-13.9,4.6
			c-2,0-4-0.3-5.9-0.8l9.3,22.6c2.7,6.7,8.7,11.4,15.8,12.7c6,1,14,1.9,23.7,1.9c9.6,0,17.7-0.9,23.7-1.9c7.1-1.2,13.1-6,15.8-12.7
			l9.3-22.6C148.5,115.3,146.5,115.6,144.5,115.6z M82.1,142.8c-1.8,0.3-3.6-0.9-3.9-2.7l-3.6-19.5c-0.3-1.8,0.9-3.6,2.7-3.9
			c0.2,0,0.4-0.1,0.6-0.1c1.6,0,3,1.1,3.3,2.7l3.6,19.5C85.1,140.7,83.9,142.5,82.1,142.8z M105,139.7c0,1.8-1.5,3.4-3.4,3.4
			c-1.8,0-3.4-1.5-3.4-3.4v-19.8c0-1.8,1.5-3.4,3.4-3.4c1.8,0,3.4,1.5,3.4,3.4V139.7z M128.7,120.6l-3.6,19.5
			c-0.3,1.8-2.1,3-3.9,2.7s-3-2.1-2.7-3.9l3.6-19.5c0.3-1.8,2.1-3,3.9-2.7c1.6,0.3,2.7,1.7,2.7,3.3
			C128.8,120.2,128.7,120.4,128.7,120.6z"/>
	</g>
</g>
<g class="st1">
	<path class="st2" d="M39.6,190h-8.5v-24.1h8.5c7.3,0,12.5,5.4,12.5,12S46.9,190,39.6,190z M39.6,169.4h-4.1v17h4.1
		c4.6,0,8-3.9,8-8.5S44.3,169.4,39.6,169.4z"/>
	<path class="st2" d="M72.7,187c-2.3,2.6-5.2,3.3-7.9,3.3c-6.3,0-10-4.1-10-9c0-5.1,4-9.2,9.5-9.2c4.7,0,9.2,3,9.2,9.7H59
		c0,2.8,2.2,4.9,6,4.9c2.2,0,3.8-0.8,5.3-2.1L72.7,187z M59.2,179h9.9c-0.7-2.7-3-3.4-4.8-3.4C62.4,175.6,60.1,176.3,59.2,179z"/>
	<path class="st2" d="M78.6,184.5c0.4,1.7,2.1,2.5,3.7,2.5c1.2,0,2.6-0.4,2.6-1.8c0-0.9-0.8-1.4-1.9-1.9l-2.5-1
		c-3.5-1.3-4.4-3.3-4.4-4.9c0-3.2,2.8-5.3,6.4-5.3c2.2,0,5,0.8,6.1,3.9l-3.4,1.2c-0.4-1.4-1.7-1.8-2.7-1.8c-1.1,0-2.3,0.6-2.3,1.8
		c0,1,0.9,1.4,1.8,1.8l2.6,0.9c3.7,1.2,4.4,3.5,4.4,5c0,3.4-3.2,5.3-6.8,5.3c-2.8,0-6-1.2-7-4.5L78.6,184.5z"/>
	<path class="st2" d="M94.5,184.5c0.4,1.7,2.1,2.5,3.7,2.5c1.2,0,2.6-0.4,2.6-1.8c0-0.9-0.8-1.4-1.9-1.9l-2.5-1
		c-3.5-1.3-4.4-3.3-4.4-4.9c0-3.2,2.8-5.3,6.4-5.3c2.2,0,5,0.8,6.1,3.9l-3.4,1.2c-0.4-1.4-1.7-1.8-2.7-1.8c-1.1,0-2.3,0.6-2.3,1.8
		c0,1,0.9,1.4,1.8,1.8l2.6,0.9c3.7,1.2,4.4,3.5,4.4,5c0,3.4-3.2,5.3-6.8,5.3c-2.8,0-6-1.2-7-4.5L94.5,184.5z"/>
	<path class="st2" d="M125.3,187c-2.3,2.6-5.2,3.3-7.9,3.3c-6.3,0-10-4.1-10-9c0-5.1,4-9.2,9.5-9.2c4.7,0,9.2,3,9.2,9.7h-14.5
		c0,2.8,2.2,4.9,6,4.9c2.2,0,3.8-0.8,5.3-2.1L125.3,187z M111.8,179h9.9c-0.7-2.7-3-3.4-4.8-3.4C115.1,175.6,112.7,176.3,111.8,179z
		"/>
	<path class="st2" d="M133.6,176.4c0.6-3,2.9-4.2,4.8-4.2c0.6,0,0.9,0.1,1.4,0.2v4.2c-0.7-0.2-1.4-0.3-2-0.3c-1.5,0-4.1,0.9-4.1,5.7
		v8.1h-4.2v-17.4h4.2V176.4z"/>
	<path class="st2" d="M147.9,172.6h5.2v3.2h-5.2v9.1c0,1.1,0.4,1.9,1.7,1.9c1,0,1.7-0.7,1.7-1.8c0-0.4-0.1-1.1-0.2-1.4h3.5
		c0.3,0.7,0.4,1.7,0.4,2c0,2.5-1.8,4.8-5.5,4.8c-2.9,0-5.7-1.2-5.7-6v-8.5h-2.7v-3.2h2.9l0.8-4.6h3.3V172.6z"/>
	<path class="st2" d="M159.5,184.5c0.4,1.7,2.1,2.5,3.7,2.5c1.2,0,2.6-0.4,2.6-1.8c0-0.9-0.8-1.4-1.9-1.9l-2.5-1
		c-3.5-1.3-4.4-3.3-4.4-4.9c0-3.2,2.8-5.3,6.4-5.3c2.2,0,5,0.8,6.1,3.9l-3.4,1.2c-0.4-1.4-1.7-1.8-2.7-1.8c-1.1,0-2.3,0.6-2.3,1.8
		c0,1,0.9,1.4,1.8,1.8l2.6,0.9c3.7,1.2,4.4,3.5,4.4,5c0,3.4-3.2,5.3-6.8,5.3c-2.8,0-6-1.2-7-4.5L159.5,184.5z"/>
</g>
</svg>
