<?xml version="1.0" encoding="utf-8"?>
<!-- Generator: Adobe Illustrator 25.3.1, SVG Export Plug-In . SVG Version: 6.00 Build 0)  -->
<svg version="1.1" id="Layer_1" xmlns="http://www.w3.org/2000/svg" xmlns:xlink="http://www.w3.org/1999/xlink" x="0px" y="0px"
	 viewBox="0 0 202.9 212" style="enable-background:new 0 0 202.9 212;" xml:space="preserve">
<style type="text/css">
	.st0{fill:#4E362A;}
	.st1{fill:#4E352A;}
</style>
<g>
	<path class="st0" d="M17.6,182.4c0.5,2.1,2.4,3.5,5,3.5c2.5,0,4.3-1.1,4.3-3.1c0-1.4-1-2.4-3.2-3.2l-3.1-1.1
		c-5.1-1.7-5.9-4.8-5.9-6.8c0-4.2,3.6-6.9,8-6.9c4,0,6.9,2.1,8,5.5L27,172c-0.8-2.4-2.5-3.1-4.3-3.1c-2,0-3.6,1-3.6,2.9
		c0,0.8,0.2,2.1,2.9,3l3.1,1.1c4.7,1.5,6.2,4.4,6.2,6.8c0,4.6-4,7.1-8.6,7.1c-4.7,0-8.4-2.7-9.1-6.5L17.6,182.4z"/>
	<path class="st0" d="M40.6,172h5.2v3.2h-5.2v9.1c0,1.1,0.4,1.9,1.7,1.9c1,0,1.7-0.7,1.7-1.8c0-0.4-0.1-1.1-0.2-1.4h3.5
		c0.3,0.7,0.4,1.7,0.4,2c0,2.5-1.8,4.8-5.5,4.8c-2.9,0-5.7-1.2-5.7-6v-8.5h-2.7V172h2.9l0.8-4.6h3.3V172z"/>
	<path class="st0" d="M53.1,164.2c1.6,0,2.8,1.2,2.8,2.7s-1.2,2.7-2.8,2.7s-2.8-1.1-2.8-2.7S51.5,164.2,53.1,164.2z M51,189.5V172
		h4.2v17.4H51z"/>
	<path class="st0" d="M64.8,175.9c0.6-3,2.9-4.2,4.8-4.2c0.6,0,0.9,0.1,1.4,0.2v4.2c-0.7-0.2-1.4-0.3-2-0.3c-1.5,0-4.1,0.9-4.1,5.7
		v8.1h-4.2V172h4.2V175.9z"/>
	<path class="st0" d="M83.5,189.5v-24.1h15.7v3.5H87.9v7h9.8v3.5h-9.8v10.1H83.5z"/>
	<path class="st0" d="M106.6,175.9c0.6-3,2.9-4.2,4.8-4.2c0.6,0,0.9,0.1,1.4,0.2v4.2c-0.7-0.2-1.4-0.3-2-0.3c-1.5,0-4.1,0.9-4.1,5.7
		v8.1h-4.2V172h4.2V175.9z"/>
	<path class="st0" d="M128.4,172h4.8l-10.8,25.3h-4.2l3.5-8.9l-7.4-16.4h4.8l4.8,11.9L128.4,172z"/>
</g>
<g>
	<path class="st1" d="M169.3,79c-6.2,1.4-12.6,4-21.1,7.1l16.1-4.2c1.9-0.5,3.4-0.7,4.8-0.9c8-0.7,8.4,3.9,20.5-2.3
		C181.9,77.3,175.7,77.5,169.3,79z"/>
	<path class="st1" d="M188.9,69.1c-4-0.2-8.1-0.4-11.9-0.1c-2,0.2-4.3,0.5-6.7,1c-2.1,0.5-4.3,1.1-6.6,1.9L131,84
		c-5.6,2.1-9.1,5.4-11.2,8.4c-2.6-5.1-9.4-8.9-18.8-10.9c-6.2-1.3-13.6-2-21.7-1.8c-0.8-5-2.3-9.9-3.9-14.6l-0.4-1.3
		c-3.2-9.9-3.6-18.9-1.1-27.6l1-3.4c-6.9,7.4-9.7,16.6-8.2,27.4c0.7,5,2.4,10,4,14.8l0.3,1c0.5,1.4,0.9,2.8,1.3,4.2
		c-3.7,0.3-7.5,0.7-11.4,1.3c-0.5,0.1-0.9,0.2-1.4,0.2c-1.2-4.8-2-10.5-0.6-16.4c0.2-1,0.5-2.1,0.8-3.1c-1.4,1.8-2.5,3.7-3.3,5.8
		c-1.8,4.6-2.3,9.4-1.5,14.6c-11.1,2.2-22.5,5.8-32.1,11.4c-10,5.8-15.6,12.7-14.6,19.4c0.2,1.1,0.5,2.1,1,3.1c0.5,1.1,1.3,2,2,3
		l9.1,12.6c1.6,2.2,4.1,4.1,7.4,5.5c3.2,1.4,7.2,2.5,11.7,3.2c4.4,0.7,9.4,1,14.7,0.9c5.1-0.1,10.6-0.6,16.1-1.5
		c5.5-0.9,10.9-2.1,15.8-3.6c5.1-1.5,9.7-3.4,13.7-5.4c4.1-2,7.5-4.3,10.1-6.6c2.7-2.4,4.5-4.9,5.4-7.6l4-12.5
		c3.3-7,8.4-11.1,12.7-13.3c2.6-1.4,5.7-2.2,8.4-3.3c11.5-4.3,20.2-8.3,29.1-10.5c7.4-1.8,15-2.5,24.5-1.2
		C199.5,70.7,193,69.3,188.9,69.1z M61.6,85.5c4-0.6,8-1.1,11.8-1.4c1.1,4.7,1.6,9.6,0.8,14.7c-3.4,0.2-6.8,0.6-10.3,1.2
		c-0.1,0-0.1,0-0.2,0c-0.1-4.9-1.4-9.6-2.9-14.1c0-0.1-0.1-0.2-0.1-0.3C61,85.6,61.3,85.6,61.6,85.5z M114.7,102.7
		c-2.6,3.7-7.5,7.3-14,10.6c-8.8,4.4-20.4,8-33.1,10c-12.8,2-24.9,2.2-34.6,0.7c-7.7-1.2-13.9-3.3-17.4-6.3c-1.5-1.3-2.8-2.9-3.1-5
		c-0.8-4.8,4.1-10.3,12.5-15.2c9.8-5.7,20.1-8.6,31-10.8c0.4,1.3,0.8,2.7,1.3,4c1.1,3,2.3,6.4,2.9,10.1c-9.3,1.8-17.7,4.5-24.5,7.7
		c-6.3,3-11.3,6.6-14.2,10.3c0.6,0.3,1.2,0.5,1.9,0.8c0.7,0.3,1.5,0.5,2.3,0.7c2.6-2.8,6.7-5.6,11.8-8c6.4-3.1,14.4-5.6,23.2-7.3
		c0.2,2.7,0.1,5.4-0.5,8.3c1.3-1.8,2.2-3.9,2.8-6.4c0.2-0.8,0.3-1.6,0.4-2.3c0.4-0.1,0.7-0.1,1.1-0.2c3-0.5,5.9-0.8,8.7-1
		c-0.2,0.9-0.4,1.7-0.7,2.6c0.8-0.9,1.4-1.8,2.1-2.7c6.6-0.5,12.8-0.3,18.1,0.4c5.7,0.7,10.4,2.1,13.7,4c0.5-0.3,1-0.7,1.4-1
		c0.8-0.6,1.4-1.1,2.1-1.7c-3.9-2.6-9.7-4.5-16.7-5.4c-4.9-0.6-10.4-0.8-16.3-0.6c1.8-4.1,2.7-8.7,2.6-13.8c0-0.3,0-0.7-0.1-1
		c7.7-0.2,14.6,0.4,20.5,1.7c9.5,2,15.8,5.7,16.6,10.6C117.1,98.5,116.1,100.8,114.7,102.7z"/>
</g>
</svg>
