<?xml version="1.0" encoding="utf-8"?>
<!-- Generator: Adobe Illustrator 25.4.1, SVG Export Plug-In . SVG Version: 6.00 Build 0)  -->
<svg version="1.1" id="Layer_1" xmlns="http://www.w3.org/2000/svg" xmlns:xlink="http://www.w3.org/1999/xlink" x="0px" y="0px"
	 viewBox="0 0 174.9 144" style="enable-background:new 0 0 174.9 144;" xml:space="preserve">
<style type="text/css">
	.st0{fill:#4E352A;}
</style>
<g>
	<path class="st0" d="M166.9,110.7H7.7V87.1h159.1L166.9,110.7L166.9,110.7z M23.3,106.5h2.4l6.2-15.4h-3l-4.3,11.6l-4.2-11.6h-3.1
		L23.3,106.5z M40.3,106.5h10.6V104H43v-4.2h7v-2.5h-7v-3.8h7.4V91H40.3V106.5z M60.2,106.5H63V100h2l3.6,6.5h3.3l-4.1-6.8
		c1.1-0.2,2-0.6,2.6-1.4c0.6-0.7,0.9-1.7,0.9-2.8c0-0.9-0.2-1.6-0.5-2.1s-0.7-1-1.3-1.3c-0.5-0.3-1.1-0.6-1.8-0.7
		c-0.7-0.1-1.4-0.2-2.1-0.2h-5.3v15.3H60.2z M63,97.6v-4.2h2.4c0.3,0,0.7,0,1.1,0.1c0.4,0,0.7,0.1,1,0.3c0.3,0.1,0.5,0.3,0.7,0.6
		c0.2,0.3,0.3,0.6,0.3,1.1s-0.1,0.9-0.3,1.2c-0.2,0.3-0.5,0.5-0.8,0.6c-0.3,0.1-0.7,0.2-1.1,0.3c-0.4,0-0.8,0.1-1.2,0.1L63,97.6
		L63,97.6z M80.6,106.5h2.7V91.1h-2.7V106.5z M93.4,106.5h2.7v-6.4h6.8v-2.5h-6.8v-4h7.2v-2.5h-9.9C93.4,91.1,93.4,106.5,93.4,106.5
		z M112.5,106.5h2.7V91.1h-2.7V106.5z M125.3,106.5h10.6V104H128v-4.2h7.1v-2.5H128v-3.8h7.4V91h-10.2v15.5H125.3z M145.3,106.5h5.7
		c0.9,0,1.9-0.2,2.8-0.5c1-0.3,1.8-0.8,2.6-1.4s1.4-1.4,1.9-2.4s0.7-2.1,0.7-3.4s-0.2-2.4-0.6-3.4c-0.4-1-1-1.8-1.7-2.4
		s-1.6-1.1-2.5-1.4s-1.9-0.5-2.9-0.5h-6.1v15.4H145.3z M148,104V93.6h2.5c0.8,0,1.6,0.1,2.3,0.3c0.7,0.2,1.3,0.5,1.8,0.9
		s0.9,1,1.2,1.6c0.3,0.7,0.4,1.5,0.4,2.4s-0.2,1.7-0.5,2.4c-0.3,0.7-0.8,1.2-1.3,1.6c-0.6,0.4-1.2,0.7-2,0.9
		c-0.8,0.2-1.6,0.3-2.4,0.3C150,104,148,104,148,104z"/>
	<path class="st0" d="M171.8,9.9V134H3.2V9.9H171.8z M4.5,132.8h166.1V11.2H4.5V132.8z"/>
	<path class="st0" d="M34,87.4C31.3,75.2,24.7,63,14.1,50.2c13.1,5,23.2,14.2,27.5,25.3c1.8-4.7,4.4-10,7.5-15.5
		c0.5,1.6,2.2,2.4,2.5-0.2c0.1-0.6,0-1.5-0.2-2.3c1.1-1.4,4.9-6.5,7.6-12.8c8.6-12.1,18.5-22.8,26.3-26.3
		c-15.4,20-28,44.3-32.2,69.2L34,87.4z"/>
	<path class="st0" d="M61.5,29.4c2.1,11.4-8.2,25.5-10.2,28c0.2,0.9,0.3,1.7,0.2,2.3c-0.3,3.8-3.7,0.4-2.2-1.9
		c-7.8-1-14,1.7-20.9-4.8c-4.7-4.5-0.6-11.6-0.6-11.6c-8.9-20.2-0.3-22.8,3.5-20.6c6.7,4,11.6,11.4,14.8,18.6
		C52.1,25.4,60.8,25.7,61.5,29.4 M57.9,34.7c-0.3-3.8-6.8-3.5-10.7,6.9c0,0,0,0-0.1,0.1c2.2,5.4,3.4,10.4,3.9,13.4
		C52.5,52.9,58.6,42.8,57.9,34.7 M49.3,56.6c1.7,0.7-4.2-20.4-15.5-27.3c-2.9-1.7-7.8-0.3-1.7,13.5c0,0-4.6,7.4,2.4,10.6
		C39,55.6,44.7,54.6,49.3,56.6"/>
	<path class="st0" d="M106.2,113.4c0.6,0,1.1,0.5,1.1,1.1s-0.5,1.1-1.1,1.1s-1.1-0.5-1.1-1.1S105.6,113.4,106.2,113.4"/>
	<path class="st0" d="M8.1,117.4h1.5v1.2l0,0c0.4-0.8,1.4-1.4,2.6-1.4c1.5,0,2.9,0.9,2.9,3v5.1h-1.5v-4.7c0-1.5-0.9-2-1.8-2
		c-1.3,0-2.2,0.8-2.2,2.6v4.1H8.1V117.4z M22.1,117.2c-2.4,0-4.2,1.9-4.2,4.2c0,2.3,1.9,4.2,4.2,4.2c2.4,0,4.2-1.9,4.2-4.2
		C26.3,119,24.5,117.2,22.1,117.2 M19.5,121.3c0-1.6,1-2.8,2.6-2.8s2.6,1.2,2.6,2.8c0,1.6-1,2.8-2.6,2.8
		C20.5,124.1,19.5,123,19.5,121.3 M29.1,125.3h1.5v-4.1c0-1.8,1-2.6,2.2-2.6c1,0,1.8,0.6,1.8,2v4.7h1.5v-5.1c0-2.1-1.3-3-2.9-3
		c-1.2,0-2.2,0.6-2.6,1.4l0,0v-1.2h-1.5V125.3z M47.4,125.2v-7.9h-1.5v1.1l0,0c-0.6-0.9-1.7-1.3-2.8-1.3c-2.5,0-4,1.8-4,4.2
		c0,2.3,1.7,4.1,4,4.1c1.1,0,2.2-0.5,2.7-1.4l0,0v1.2c0,1.3-0.6,2.7-2.9,2.7c-1.2,0-2-0.5-2.8-1.3l-1,1.3c1.1,1,2.4,1.4,3.9,1.4
		C45.7,129.3,47.4,127.6,47.4,125.2 M43.3,118.6c1.6,0,2.6,1.2,2.6,2.8c0,1.6-1,2.7-2.6,2.7s-2.6-1.1-2.6-2.7
		C40.7,119.7,41.7,118.6,43.3,118.6 M50.9,125.3h1.5v-4.1c0-1.8,1-2.6,2.1-2.6c1.5,0,1.7,1.1,1.7,2.6v4.1h1.5V121
		c0-1.4,0.6-2.4,2-2.4c1.5,0,1.7,1.1,1.7,2.3v4.4h1.5v-4.6c0-1.8-0.6-3.5-3-3.5c-1,0-2,0.5-2.5,1.5c-0.5-1-1.3-1.5-2.5-1.5
		c-1.4,0-2.4,1-2.5,1.4l0,0v-1.2H51L50.9,125.3L50.9,125.3z M69.8,117.2c-2.4,0-4.2,1.9-4.2,4.2c0,2.3,1.9,4.2,4.2,4.2
		c2.4,0,4.2-1.9,4.2-4.2C74,119,72.2,117.2,69.8,117.2 M67.2,121.3c0-1.6,1-2.8,2.6-2.8s2.6,1.2,2.6,2.8c0,1.6-1,2.8-2.6,2.8
		C68.2,124.1,67.2,123,67.2,121.3 M77.1,117.4V130h1.5v-5.9l0,0c0.5,0.8,1.6,1.3,2.8,1.3c2.4,0,4-1.8,4-4.2c0-2.3-1.6-4.2-4-4.2
		c-1.1,0-2.2,0.5-2.8,1.3l0,0v-1.1h-1.5 M81.2,118.6c1.6,0,2.6,1.2,2.6,2.8c0,1.6-1,2.8-2.6,2.8s-2.6-1.2-2.6-2.8
		C78.6,119.7,79.6,118.6,81.2,118.6 M88.1,125.3h1.5v-4c0-1.7,0.8-2.5,2.3-2.5c0.2,0,0.5,0,0.7,0.1l0.1-1.6
		c-0.2-0.1-0.4-0.1-0.7-0.1c-1,0-2,0.6-2.4,1.4l0,0v-1.2h-1.5V125.3z M98.3,117.2c-2.4,0-4.2,1.9-4.2,4.2c0,2.3,1.9,4.2,4.2,4.2
		c2.4,0,4.2-1.9,4.2-4.2C102.5,119,100.7,117.2,98.3,117.2 M95.7,121.3c0-1.6,1-2.8,2.6-2.8s2.6,1.2,2.6,2.8c0,1.6-1,2.8-2.6,2.8
		C96.7,124.1,95.7,123,95.7,121.3 M106.9,117.4h-1.5v9c0,1-0.3,1.5-1.1,1.5c-0.2,0-0.4-0.1-0.6-0.1l-0.2,1.4c0.3,0.1,0.6,0.2,1,0.2
		c2.4,0,2.4-2.1,2.4-2.9L106.9,117.4 M105.4,117.4v9c0,1-0.3,1.5-1.1,1.5c-0.2,0-0.4-0.1-0.6-0.1l-0.2,1.4c0.3,0.1,0.6,0.2,1,0.2
		c2.4,0,2.4-2.1,2.4-2.9v-9.1C106.9,117.4,105.4,117.4,105.4,117.4z M111.5,121.9h6.4v-0.5c0-2-1.1-4.2-3.9-4.2
		c-2.4,0-4.1,1.8-4.1,4.2c0,2.4,1.6,4.2,4.1,4.2c1.5,0,2.7-0.5,3.5-1.6l-1.1-0.9c-0.6,0.7-1.3,1.2-2.2,1.2
		C112.8,124.2,111.5,123.3,111.5,121.9 M111.5,120.7c0-1.1,1-2.3,2.5-2.3s2.3,1,2.3,2.3H111.5z M127,118.5c-0.8-0.9-1.9-1.3-3-1.3
		c-2.5,0-4.1,1.7-4.1,4.2c0,2.4,1.7,4.1,4.1,4.1c1.2,0,2.2-0.4,3-1.2l-1.1-1.1c-0.5,0.6-1.1,0.9-1.9,0.9c-1.6,0-2.6-1.2-2.6-2.7
		s0.8-2.8,2.5-2.8c0.8,0,1.4,0.3,2,0.9L127,118.5z M133.4,117.4h-2.2v-2.2h-1.5v2.2H128v1.3h1.7v4.1c0,1.3,0,2.7,2.4,2.7
		c0.3,0,1-0.1,1.4-0.3v-1.4c-0.3,0.2-0.7,0.2-1.1,0.2c-1.1,0-1.1-0.9-1.1-1.8v-3.6h2.2v-1.2H133.4z M137.4,125.4
		c0.6,0,1.1-0.5,1.1-1.1s-0.5-1.1-1.1-1.1s-1.1,0.5-1.1,1.1S136.8,125.4,137.4,125.4 M145.4,117.2c-2.4,0-4.2,1.9-4.2,4.2
		c0,2.3,1.9,4.2,4.2,4.2c2.4,0,4.2-1.9,4.2-4.2C149.6,119,147.8,117.2,145.4,117.2 M142.8,121.3c0-1.6,1-2.8,2.6-2.8
		s2.6,1.2,2.6,2.8c0,1.6-1,2.8-2.6,2.8C143.8,124.1,142.8,123,142.8,121.3 M152.4,125.3h1.5v-4c0-1.7,0.8-2.5,2.3-2.5
		c0.2,0,0.5,0,0.7,0.1l0.1-1.6c-0.2-0.1-0.4-0.1-0.7-0.1c-1,0-2,0.6-2.4,1.4l0,0v-1.2h-1.5L152.4,125.3L152.4,125.3z M167,125.2
		v-7.9h-1.5v1.1l0,0c-0.6-0.9-1.7-1.3-2.8-1.3c-2.5,0-4,1.8-4,4.2c0,2.3,1.7,4.1,4,4.1c1.1,0,2.2-0.5,2.7-1.4h0.1v1.2
		c0,1.3-0.6,2.7-2.9,2.7c-1.2,0-2-0.5-2.8-1.3l-1,1.3c1.1,1,2.4,1.4,3.9,1.4C165.3,129.3,167,127.6,167,125.2 M162.9,118.6
		c1.6,0,2.6,1.2,2.6,2.8c0,1.6-1,2.7-2.6,2.7s-2.6-1.1-2.6-2.7C160.3,119.7,161.3,118.6,162.9,118.6"/>
	<path class="st0" d="M167,85.8H87.4V14.7H167V85.8z M96.9,21.4v18.4h4V26.7h0.1l8,13.1h5.3V21.4h-4v12.8h-0.1l-7.8-12.8L96.9,21.4
		 M127.8,21c-5.7,0-9.9,3.8-9.9,9.6s4.2,9.7,9.9,9.7s9.9-3.8,9.9-9.7S133.6,21,127.8,21 M122.1,30.6c0-3.4,2.3-5.9,5.7-5.9
		c3.4,0,5.7,2.5,5.7,5.9s-2.3,5.9-5.7,5.9S122.1,34,122.1,30.6 M141.4,21.4v18.4h4V26.7h0.1l8,13.1h5.3V21.4h-4v12.8h-0.1l-7.8-12.8
		L141.4,21.4 M95.9,65v14.5h2v-6.4h3.1c3.7,0,4.7-2.2,4.7-4.1c0-1.8-1-4.1-4.7-4.1L95.9,65 M97.8,66.8h2.6c1.6,0,3.1,0.4,3.1,2.3
		c0,2-1.6,2.3-3.1,2.3h-2.6V66.8z M107.6,69.8v9.7h1.9v-4.9c0-2.1,1-3.1,2.8-3.1c0.3,0,0.6,0.1,0.9,0.1l0.1-2
		c-0.2-0.1-0.5-0.1-0.8-0.1c-1.2,0-2.5,0.7-2.9,1.7l0,0v-1.5h-2 M119.1,69.6c-2.9,0-5.2,2.3-5.2,5.1c0,2.8,2.3,5.1,5.2,5.1
		c2.9,0,5.2-2.3,5.2-5.1C124.3,71.9,122,69.6,119.1,69.6 M115.9,74.7c0-2,1.2-3.4,3.2-3.4s3.2,1.4,3.2,3.4s-1.2,3.4-3.2,3.4
		S115.9,76.6,115.9,74.7 M128.6,69.8h-1.9v11c0,1.2-0.3,1.9-1.4,1.9c-0.2,0-0.5-0.1-0.8-0.2l-0.2,1.7c0.4,0.1,0.8,0.2,1.2,0.2
		c3,0,3-2.5,3-3.5V69.8 M126.3,66.3c0,0.7,0.6,1.4,1.4,1.4c0.7,0,1.4-0.6,1.4-1.4c0-0.7-0.6-1.4-1.4-1.4
		C126.9,65,126.3,65.6,126.3,66.3 M133.2,75.4h7.9v-0.7c0-2.5-1.3-5.1-4.8-5.1c-2.9,0-5.1,2.2-5.1,5.1s1.9,5.1,5,5.1
		c1.9,0,3.3-0.7,4.3-2l-1.4-1.1c-0.7,0.9-1.5,1.5-2.7,1.5C134.7,78.2,133.2,77.1,133.2,75.4 M133.2,73.9c0-1.3,1.2-2.8,3-2.8
		c1.9,0,2.8,1.2,2.8,2.8H133.2z M150.2,72.4l1.4-1.3c-1-1-2.3-1.5-3.8-1.5c-3.1,0-5.1,2.1-5.1,5.1s2.1,5.1,5.1,5.1
		c1.4,0,2.7-0.4,3.7-1.5l-1.3-1.3c-0.6,0.7-1.3,1.1-2.4,1.1c-1.9,0-3.2-1.5-3.2-3.3s1-3.4,3.1-3.4C148.8,71.3,149.5,71.7,150.2,72.4
		 M159.8,71.4v-1.6h-2.7v-2.7h-1.9v2.7h-2.1v1.6h2.1v5.1c0,1.6,0,3.3,2.9,3.3c0.4,0,1.2-0.1,1.7-0.3v-1.7c-0.4,0.2-0.9,0.3-1.3,0.3
		c-1.4,0-1.4-1.1-1.4-2.2v-4.4h2.7 M112.6,60.8v-9.6h-7.2v3.7h3.3v3c-0.8,0.4-2,0.9-3.8,0.9c-3.5,0-5.7-2.5-5.7-5.9s2.3-5.9,5.7-5.9
		c2,0,3.4,0.6,4.5,1.7l2.9-3.1c-1.8-1.7-4.4-2.4-7.3-2.4c-5.7,0-9.9,3.8-9.9,9.7s4.2,9.6,9.9,9.6C107.6,62.5,110.3,62,112.6,60.8
		 M117.3,43.7v18.4h4V48h0.1l4.6,14.1h3.1L134,48h0.1v14.1h4V43.7H132l-4.3,12h-0.1l-4.2-12H117.3 M151.1,43.2
		c-5.7,0-9.9,3.8-9.9,9.7s4.2,9.6,9.9,9.6s9.9-3.8,9.9-9.6C161,47,156.8,43.2,151.1,43.2 M145.4,52.9c0-3.4,2.3-5.9,5.7-5.9
		s5.7,2.5,5.7,5.9s-2.3,5.9-5.7,5.9C147.6,58.8,145.4,56.3,145.4,52.9"/>
</g>
</svg>
