<?xml version="1.0" encoding="utf-8"?>
<!-- Generator: Adobe Illustrator 25.3.1, SVG Export Plug-In . SVG Version: 6.00 Build 0)  -->
<svg version="1.1" id="Layer_1" xmlns="http://www.w3.org/2000/svg" xmlns:xlink="http://www.w3.org/1999/xlink" x="0px" y="0px"
	 viewBox="0 0 202.9 212" style="enable-background:new 0 0 202.9 212;" xml:space="preserve">
<style type="text/css">
	.st0{fill:none;stroke:#4E352A;stroke-width:7;stroke-miterlimit:10;}
	.st1{fill:#4E352A;}
	.st2{fill:#4E362A;}
</style>
<g>
	<line class="st0" x1="136.1" y1="27.3" x2="69.5" y2="27.3"/>
	<path class="st0" d="M137.1,31.2"/>
	<path class="st0" d="M68.6,31.2"/>
	<g>
		<path class="st1" d="M132.4,17.3v5.8c-1.8,2.3-3.4,6.2-2.2,12.4c0.7,3.5,2.1,5.7,3.2,7.4c0.5,0.8,1,1.5,1.4,2.4
			c1.6,3.4,2.5,7.3,2.5,11.1v68.3c0,3.6-0.7,8.5-3.9,11.6c-2.2,2.1-5.6,3.6-10,4.5c-3.8,0.7-8,1-13.7,1c-2.3,0-4.7-0.1-6.8-0.1
			l-0.1,0l-0.1,0c-2.1,0-4.5,0.1-6.8,0.1c-5.6,0-9.9-0.3-13.7-1c-4.5-0.8-7.8-2.3-10-4.5c-3.2-3.2-3.9-8.1-3.9-11.6V56.5
			c0-3.8,0.9-7.7,2.5-11.1c0.4-0.9,0.9-1.6,1.4-2.4c1.2-1.8,2.6-3.9,3.2-7.4c1.2-6.2-0.4-10.1-2.2-12.4v-5.8h29.6H132.4 M137.9,10.3
			h-35h-35c-0.9,0-1.6,0.7-1.6,1.6v11.9c0,1.3,0.4,2.5,1.3,3.4c0.9,1,1.8,3,1.1,7c-0.6,3.4-2.5,4.7-4.1,8.1
			c-2.1,4.4-3.2,9.2-3.2,14.1v68.3c0,6.1,1.6,12.3,6,16.6c3.7,3.6,8.7,5.4,13.6,6.3c4.9,0.9,9.9,1.1,15,1.1c2.3,0,4.6,0,6.9-0.1
			c2.3,0,4.6,0.1,6.9,0.1c5,0,10-0.2,15-1.1c5-0.9,10-2.8,13.6-6.3c4.5-4.3,6-10.6,6-16.6V56.5c0-4.9-1.1-9.7-3.2-14.1
			c-1.7-3.5-3.5-4.7-4.1-8.1c-0.8-4,0.2-6,1.1-7c0.8-0.9,1.3-2.2,1.3-3.4V11.9C139.4,11.1,138.7,10.3,137.9,10.3L137.9,10.3z"/>
	</g>
</g>
<g>
	<path class="st2" d="M25.5,190.2l-6.9-16.6l-1.4,16.8h-4.4l2.2-24.1h4.6l7.4,17.7l7.4-17.7H39l2.3,24.1h-4.4l-1.5-16.8l-6.9,16.6
		H25.5z"/>
	<path class="st2" d="M63.6,173v17.4h-4.2v-2.6c-1.2,1.9-3.4,3-6,3c-5.2,0-8.5-4.1-8.5-9.2c0-4.9,3.2-9,8.6-9c2.3,0,4.5,1,5.9,3V173
		H63.6z M54.2,187.3c2.9,0,5.2-2,5.2-5.4c0-3.4-2.2-5.7-5.3-5.7c-3.2,0-5,2.5-5,5.5C49.1,184.8,51.1,187.3,54.2,187.3z"/>
	<path class="st2" d="M73.1,176.9c0.6-3,2.9-4.2,4.8-4.2c0.6,0,0.9,0.1,1.4,0.2v4.2c-0.7-0.2-1.4-0.3-2-0.3c-1.5,0-4.1,0.9-4.1,5.7
		v8.1h-4.2V173h4.2V176.9z"/>
	<path class="st2" d="M84.8,165.2c1.6,0,2.8,1.2,2.8,2.7s-1.2,2.7-2.8,2.7s-2.8-1.1-2.8-2.7S83.2,165.2,84.8,165.2z M82.7,190.5V173
		h4.2v17.4H82.7z"/>
	<path class="st2" d="M92.3,173h4.2v2.9c1.1-2.3,3.2-3.3,5.6-3.3c4.3,0,6.4,3.1,6.4,8.2v9.6h-4.2v-9.6c0-3-1.3-4.6-3.4-4.6
		c-2.5,0-4.5,1.9-4.5,5.5v8.7h-4.2V173z"/>
	<path class="st2" d="M131.3,173v17.4h-4.2v-2.6c-1.2,1.9-3.4,3-6,3c-5.2,0-8.5-4.1-8.5-9.2c0-4.9,3.2-9,8.6-9c2.3,0,4.5,1,5.9,3
		V173H131.3z M122,187.3c2.9,0,5.2-2,5.2-5.4c0-3.4-2.2-5.7-5.3-5.7c-3.2,0-5,2.5-5,5.5C116.9,184.8,118.8,187.3,122,187.3z"/>
	<path class="st2" d="M154.2,165.6v24.9H150v-2.6c-1.3,1.9-3.4,3-6,3c-5.1,0-8.5-4.1-8.5-9.2c0-4.9,3.2-9,8.5-9c2.3,0,4.5,1,6,3
		v-10.1H154.2z M144.9,187.3c2.9,0,5.2-2,5.2-5.4c0-3.4-2.1-5.7-5.3-5.7c-3.2,0-5,2.5-5,5.5C139.8,184.8,141.8,187.3,144.9,187.3z"
		/>
	<path class="st2" d="M176.3,187.5c-2.3,2.6-5.2,3.3-7.9,3.3c-6.3,0-10-4.1-10-9c0-5.1,4-9.2,9.5-9.2c4.7,0,9.2,3,9.2,9.7h-14.5
		c0,2.8,2.2,4.9,6,4.9c2.2,0,3.8-0.8,5.3-2.1L176.3,187.5z M162.8,179.5h9.9c-0.7-2.7-3-3.4-4.8-3.4
		C166,176,163.7,176.8,162.8,179.5z"/>
	<path class="st2" d="M182.7,184.9c0.4,1.7,2.1,2.5,3.7,2.5c1.2,0,2.6-0.4,2.6-1.8c0-0.9-0.8-1.4-1.9-1.9l-2.5-1
		c-3.5-1.3-4.4-3.3-4.4-4.9c0-3.2,2.8-5.3,6.4-5.3c2.2,0,5,0.8,6.1,3.9l-3.4,1.2c-0.4-1.4-1.7-1.8-2.7-1.8c-1.1,0-2.3,0.6-2.3,1.8
		c0,1,0.9,1.4,1.8,1.8l2.6,0.9c3.7,1.2,4.4,3.5,4.4,5c0,3.4-3.2,5.3-6.8,5.3c-2.8,0-6-1.2-7-4.5L182.7,184.9z"/>
</g>
</svg>
