<?xml version="1.0" encoding="utf-8"?>
<!-- Generator: Adobe Illustrator 25.3.1, SVG Export Plug-In . SVG Version: 6.00 Build 0)  -->
<svg version="1.1" id="Layer_1" xmlns="http://www.w3.org/2000/svg" xmlns:xlink="http://www.w3.org/1999/xlink" x="0px" y="0px"
	 viewBox="0 0 174.9 144" style="enable-background:new 0 0 174.9 144;" xml:space="preserve">
<style type="text/css">
	.st0{fill:#4E352A;}
	.st1{fill:#A2938C;}
</style>
<g>
	<g>
		<path class="st0" d="M47.2,86.2c0-1.2-0.1-2.7-1.6-2.7c-1.5,0-1.7,1.5-1.7,2.7v3.5l3.3-0.6V86.2z"/>
		<path class="st0" d="M39.2,90.6v-4.6c0-3.8,2.3-5.9,6.4-5.9c4.1,0,6.3,2.1,6.3,5.9v2.5l2.1-0.4v-7.6h6.8c3.8,0,5.7,1.5,5.7,5.5
			c0,0,0,0,0,0l2-0.3c0.2-3.8,2.2-5.7,6.2-5.7c3.2,0,5.3,1.1,6,3.6l5.7-1l0.5-2.2h5.6l0.2,1.1l5.4-0.9v-0.2h1.3l47.6-8H24.5
			c0,7,1.2,13.7,3.4,20L39.2,90.6z"/>
		<path class="st0" d="M58.7,84v3.3l3.2-0.5c0-0.1,0-0.2,0-0.3C62,84.1,61,84,58.7,84z"/>
		<path class="st0" d="M75,83.6c-1.1,0-1.6,0.5-1.7,1.3l3-0.5C76,83.9,75.7,83.6,75,83.6z"/>
		<path class="st0" d="M105.6,88.3l1-0.4l-0.3-7.5h4.4v5.9l2.5-0.9v-4.9h4.7v3.2l3.3-1.2c1-1.6,2.7-2.4,5.4-2.4c0.3,0,0.5,0,0.8,0
			l19.9-7.6L103.3,81L105.6,88.3z"/>
		<polygon class="st0" points="98.3,91.1 98.3,82 93.2,83 95.2,92.3 		"/>
		<polygon class="st0" points="91.1,93 89.8,84.1 89.8,84.1 88.4,93 		"/>
		<path class="st0" d="M77.8,98.6c-0.1,0.2-0.2,0.3-0.3,0.4l0.4-0.1L77.8,98.6L77.8,98.6z"/>
		<path class="st0" d="M68.5,94.5v-6.8l-2.3,0.4c-0.3,1-1,1.8-2.2,2.3v0.1c1.3,0.3,2.2,1.2,2.3,2.6c0.1,1.6,0.2,5,0.4,6.3
			c0.1,0.3,0.2,0.5,0.4,0.7v0.3h-5.1c-0.1-0.4-0.2-0.7-0.3-1.1c-0.1-1.7,0-3.4-0.1-4.6c-0.1-1.2-0.5-2-1.6-2.1h-1.5v7.8H54v-9.8
			L51.9,91V94c0,4.5-1.6,6.8-6.3,6.8c-4.7,0-6.4-2.3-6.4-6.8v-0.6l-10.3,2c2.7,6.6,6.4,12.6,11.1,17.9l32.9-12.5
			C69.7,100.4,68.5,97.8,68.5,94.5z"/>
		<polygon class="st0" points="102.3,89.2 102.3,89.3 102.3,89.6 102.4,89.5 		"/>
		<path class="st0" d="M45.6,97.3c1.5,0,1.6-1.7,1.6-2.8v-2.6l-3.3,0.6v1.9C43.9,95.6,44.1,97.3,45.6,97.3z"/>
		<path class="st0" d="M74.9,97.3c1.6,0,1.6-1.3,1.6-2.5v-1.6h-1.7v-3.6h6.3v8l2.2-0.8l2.7-12.4l-5.1,1c0,0.2,0,0.3,0,0.5v1.5h-4.7
			v-1l-3.3,0.6v8.7C73.2,96.6,73.7,97.3,74.9,97.3z"/>
		<polygon class="st0" points="106.8,91.6 106.7,89.2 106,89.4 106.7,91.6 		"/>
		<path class="st0" d="M102.8,90.7l-0.5,0.2l0.4,9.4h-4.4v-7.8l-2.8,1.1l1.4,6.6h-4.7l-0.7-3.9h-2.7l-1,0.4l-0.5,3.5h-4.7l0.3-1.5
			l-1.7,0.7v0.8h-1.9l-37.1,15.3c5.5,5.6,12.1,10.1,19.5,13.3l44.1-29.1L102.8,90.7z"/>
		<polygon class="st0" points="113.2,94.9 113.2,86.5 110.8,87.5 110.8,96.5 		"/>
		<path class="st0" d="M120.3,90.2v-3.9c0-1.2,0.2-2.1,0.4-3l-2.8,1.2v7.3L120.3,90.2z"/>
		<path class="st0" d="M132.1,82.4l15.1-10l-18.7,7.7C130.1,80.5,131.4,81.2,132.1,82.4z"/>
		<path class="st0" d="M126.8,83.6c-1.5,0-1.8,0.8-1.8,2.1l0,1.5l3.2-2.1C127.9,84.1,127.4,83.6,126.8,83.6z"/>
		<path class="st0" d="M120.3,94.5v-3l-2.4,1.7v7.2h-4.7v-3.9l-2.5,1.8v2.1h-3l-42.4,30c6.4,2.3,13.3,3.5,20.5,3.5
			c2.7,0,5.3-0.2,7.9-0.5l29.2-33.2C121.1,99.2,120.3,97.2,120.3,94.5z"/>
		<path class="st0" d="M132.9,85.7v1.7h-4.7v-1.3c0-0.1,0-0.2,0-0.2l-3.3,2.3l0,7.3c0,0.7,0.2,1.3,0.7,1.5l2.7-3v-1.4h1.2l17.7-20.1
			L132.4,83C132.7,83.7,132.9,84.6,132.9,85.7z"/>
		<path class="st0" d="M128.1,96.1l-0.8,0.9C127.7,96.9,128,96.5,128.1,96.1z"/>
		<path class="st0" d="M133,92.6V95c0,3.4-2,5.8-6.7,5.8c-0.7,0-1.3-0.1-1.8-0.2l-25.7,31.8c26.4-5.7,46.5-28.3,48.3-55.9l0.1-4
			L131,92.6H133z"/>
		<path class="st0" d="M136.1,122.7c13.4-13.4,20.8-31.2,20.8-50.2c0-19-7.4-36.8-20.8-50.2C122.7,8.9,104.8,1.5,85.9,1.5
			c-39.2,0-71,31.9-71,71c0,19,7.4,36.8,20.8,50.2c13.4,13.4,31.2,20.8,50.2,20.8C104.8,143.5,122.7,136.1,136.1,122.7z M20.5,72.5
			c0-36,29.3-65.3,65.3-65.3c36,0,65.3,29.3,65.3,65.3c0,36-29.3,65.3-65.3,65.3C49.8,137.8,20.5,108.5,20.5,72.5z"/>
		<path class="st0" d="M57.6,65.6c6.4,0,8.4-3.5,8.4-8V38.5h-6.2v19.8c0,1.1-0.5,2.5-2.1,2.5c-1.8,0-2.2-1.1-2.2-2.4v-20h-6.2v19.2
			C49.3,63.1,52.3,65.6,57.6,65.6z"/>
		<path class="st0" d="M76.1,65.6c5.2,0,8-2.8,8-7.9c0-3.2-0.8-5-2.3-6.3c-1.5-1.3-3.5-2.3-5.8-3.7c-1.2-0.8-2.1-1.7-1.9-3.3
			c0.1-1.2,0.9-1.9,2.2-1.8c2.1,0.1,2,2.3,2.1,3.8H84c0.3-5-2.5-8.6-7.9-8.6c-4.8,0-7.8,2.5-7.8,7.5c0,2.3,0.7,4,1.8,5.3
			c1.2,1.3,2.8,2.4,4.7,3.5c1.6,1,3.5,1.8,3.5,4.1c0,1.3-0.6,2.7-2.1,2.7c-2,0-2.5-1.3-2.5-2.9v-1.9H68V59
			C68,62.5,70.4,65.6,76.1,65.6z"/>
		<path class="st0" d="M100.6,63.8c1.8-1.1,2.6-3.1,2.7-5.7V46.3c0-2.5-0.4-5.1-2.8-6.5c-2-1.2-4.7-1.2-7-1.2h-6.8V65h8.4
			C97,65,99,64.8,100.6,63.8z M93,60.2v-17c3,0.1,4.1,0.2,4.1,3.4v8.7C97.2,58.8,97.1,60.5,93,60.2z"/>
		<path class="st0" d="M112.1,59.8h4.9l0.9,5.2h6.3l-5.8-26.5h-7.5L105.1,65h6.3L112.1,59.8z M114.6,43.3L114.6,43.3l1.8,11.9h-3.6
			L114.6,43.3z"/>
	</g>
	<g>
		<path class="st1" d="M68.5,87.7v-1.4c0-0.2,0-0.4,0-0.7l-2,0.3c0,0.8-0.1,1.5-0.3,2.2L68.5,87.7z"/>
		<polygon class="st1" points="110.8,96.5 110.8,98.2 113.2,96.5 113.2,94.9 		"/>
		<path class="st1" d="M86.2,84.3l0.4-1.7l-5.7,1c0.1,0.5,0.2,1.1,0.3,1.7L86.2,84.3z"/>
		<path class="st1" d="M125,87.2l0,1l3.3-2.3c0-0.3,0-0.6-0.1-0.8L125,87.2z"/>
		<polygon class="st1" points="47.2,89.2 43.9,89.8 43.9,92.5 47.2,91.9 		"/>
		<path class="st1" d="M58.7,88.9h1.6c1.2,0,1.6-1,1.6-2.2l-3.2,0.5V88.9z"/>
		<polygon class="st1" points="54,90.5 54,88.1 51.9,88.5 51.9,91 		"/>
		<polygon class="st1" points="106.7,89.2 106.6,87.9 105.6,88.3 106,89.4 		"/>
		<path class="st1" d="M127.3,97.1l0.8-0.9c0.2-0.5,0.2-1.2,0.2-1.7V94l-2.7,3c0.2,0.1,0.5,0.2,0.9,0.2
			C126.9,97.3,127.1,97.2,127.3,97.1z"/>
		<polygon class="st1" points="113.2,86.5 113.2,85.4 110.8,86.4 110.8,87.5 		"/>
		<polygon class="st1" points="98.3,82 98.3,80.7 92.9,81.6 93.2,83 		"/>
		<path class="st1" d="M120.7,83.4c0.1-0.4,0.3-0.7,0.4-1l-3.3,1.2v0.9L120.7,83.4z"/>
		<polygon class="st1" points="87.8,96.9 88.8,96.5 87.9,96.5 		"/>
		<polygon class="st1" points="117.9,91.8 117.9,93.2 120.3,91.5 120.3,90.2 		"/>
		<path class="st1" d="M76.5,86.1c0-0.8-0.1-1.3-0.2-1.8l-3,0.5c0,0.2-0.1,0.5-0.1,0.8v1.2L76.5,86.1L76.5,86.1z"/>
		<path class="st1" d="M147.2,72.5l-0.1,4C147.1,75.2,147.2,73.8,147.2,72.5z"/>
		<path class="st1" d="M128.5,80.2l18.7-7.7L127.4,80C127.8,80.1,128.1,80.1,128.5,80.2z"/>
		<path class="st1" d="M78.1,100.4l-0.2-1.5L77.5,99c-0.9,1.3-1.9,1.8-3.7,1.8c-0.3,0-0.6,0-0.8-0.1L40,113.3
			c0.7,0.8,1.5,1.6,2.2,2.4l37.1-15.3H78.1z"/>
		<path class="st1" d="M106,100.4l-0.2-0.5l-44.1,29.1c1.2,0.5,2.4,1,3.6,1.4l42.4-30H106z"/>
		<polygon class="st1" points="103.1,80.5 103.3,81 147.2,72.5 99.6,80.5 		"/>
		<path class="st1" d="M39.2,90.6l-11.4,1.9c0.3,1,0.7,2,1.1,2.9l10.3-2V90.6z"/>
		<path class="st1" d="M132.4,83l14.8-10.5l-15.1,10C132.2,82.6,132.3,82.8,132.4,83z"/>
		<polygon class="st1" points="131,92.6 147.2,72.5 129.5,92.6 		"/>
		<polygon class="st1" points="102.3,89.6 102.4,90.9 102.8,90.7 102.4,89.5 		"/>
		<polygon class="st1" points="95.2,92.3 95.5,93.7 98.3,92.6 98.3,91.1 		"/>
		<path class="st1" d="M122.9,100.1l-29.2,33.2c1.7-0.2,3.3-0.5,5-0.8l25.7-31.8C123.9,100.5,123.4,100.4,122.9,100.1z"/>
		<polygon class="st1" points="81.2,97.6 81.2,99.6 83,98.9 83.4,96.8 		"/>
	</g>
</g>
</svg>
