<?xml version="1.0" encoding="utf-8"?>
<!-- Generator: Adobe Illustrator 24.1.0, SVG Export Plug-In . SVG Version: 6.00 Build 0)  -->
<svg version="1.1" id="Layer_1" xmlns="http://www.w3.org/2000/svg" xmlns:xlink="http://www.w3.org/1999/xlink" x="0px" y="0px"
	 viewBox="0 0 523 144" style="enable-background:new 0 0 523 144;" xml:space="preserve">
<style type="text/css">
	.st0{fill:#4E352A;}
</style>
<g>
	<g>
		<g>
			<path class="st0" d="M53.5,133.5c-6.9,3.4-14.1,5.5-22.4,5.5c-17.2,0-30.3-11.5-30.3-29c0-18.2,13.1-30.2,31-30.2
				c8.5,0,15.8,2.7,21.3,6.4c1,0.7,1.4,1.2,1.4,1.9c0,0.5-0.2,1.1-0.6,1.6l-4.2,6.4c-0.6,0.8-1.1,1.2-1.8,1.2c-0.4,0-1-0.2-1.5-0.5
				c-4.2-2.4-9-4.1-14.6-4.1c-10.1,0-16.3,7.1-16.3,16.7c0,9.9,6.6,16.6,15.9,16.6c3.5,0,6.3-0.5,8.6-1.4c1-0.4,1.2-0.7,1.2-1.8
				v-11.5c0-1.5,0.7-2.2,2.1-2.2h10c1.5,0,2.1,0.7,2.1,2.2v18.8C55.5,132,55,132.7,53.5,133.5z"/>
			<path class="st0" d="M98.3,79.8c17.8,0,30.6,12.3,30.6,29.6c0,17.4-12.9,29.6-30.8,29.6c-17.5,0-30.3-12.2-30.3-29.4
				C67.8,92.2,80.7,79.8,98.3,79.8z M98.2,125.9c9,0,16-6.6,16-16.5c0-10.1-6.9-16.6-15.9-16.6c-9.1,0-15.8,6.6-15.8,16.6
				C82.5,119.4,89.2,125.9,98.2,125.9z"/>
			<path class="st0" d="M170.2,79.8c17.8,0,30.6,12.3,30.6,29.6c0,17.4-12.9,29.6-30.8,29.6c-17.5,0-30.3-12.2-30.3-29.4
				C139.7,92.2,152.6,79.8,170.2,79.8z M170.1,125.9c9,0,16-6.6,16-16.5c0-10.1-6.9-16.6-15.9-16.6c-9.1,0-15.8,6.6-15.8,16.6
				S161.1,125.9,170.1,125.9z"/>
			<path class="st0" d="M216.9,80.8H237c20,0,31.2,11,31.2,27.9c0,17.8-11.9,29.2-32.6,29.2h-18.7c-1.5,0-2.1-0.7-2.1-2.1V83
				C214.8,81.5,215.4,80.8,216.9,80.8z M229,95.1v28.6c0,0.9,0.2,1.2,1.2,1.2h5.3c11.9,0,18-6,18-15.7c0-9.2-6.1-15.3-17.7-15.3
				h-5.6C229.2,93.9,229,94.2,229,95.1z"/>
			<path class="st0" d="M319.8,80.8h9.9c1.5,0,2.2,0.7,2.2,2.1v52.9c0,2-0.6,3.2-2,3.2c-1.1,0-2.3-0.8-4.2-2.7l-29.4-27.6v27.1
				c0,1.5-0.7,2.1-2.2,2.1h-9.9c-1.5,0-2.1-0.7-2.1-2.1V83c0-2,0.6-3.2,2-3.2c1.1,0,2.3,0.8,4.2,2.7l29.4,27.6V83
				C317.7,81.5,318.3,80.8,319.8,80.8z"/>
			<path class="st0" d="M387.7,127v8.8c0,1.5-0.7,2.1-2.2,2.1h-34.4c-1.5,0-2.1-0.7-2.1-2.1V83c0-1.5,0.7-2.1,2.1-2.1h34.3
				c1.5,0,2.2,0.7,2.2,2.1v8.8c0,1.6-0.7,2.1-2.2,2.1h-21c-1,0-1.2,0.3-1.2,1.2v6.4c0,1,0.2,1.2,1.2,1.2h18.3c1.5,0,2.1,0.7,2.1,2.2
				v8.7c0,1.5-0.7,2.1-2.1,2.1h-18.3c-1,0-1.2,0.3-1.2,1.2v6.7c0,0.9,0.2,1.2,1.2,1.2h21C386.9,124.9,387.7,125.5,387.7,127z"/>
			<path class="st0" d="M441.1,86.8c0.7,0.6,1,1.1,1,1.6s-0.2,1.1-0.6,1.6l-4.4,7c-0.5,0.7-1,1.1-1.6,1.1c-0.5,0-1-0.2-1.5-0.7
				c-3.9-2.9-8.2-4.9-13-4.9c-4.5,0-7,1.9-7,4.6c0,3.1,2.9,4.2,9.6,5.8c12.3,3,18.6,7.8,18.6,17.5c0,11.6-9.1,18.4-22.8,18.4
				c-8.5,0-15.5-2.7-20.8-6.9c-0.8-0.6-1.2-1.2-1.2-1.9c0-0.6,0.2-1.1,0.6-1.8l4.2-6.8c0.5-0.8,1-1.2,1.6-1.2c0.4,0,0.9,0.2,1.6,0.7
				c3.7,2.9,8.8,5,13.9,5c5.4,0,8.1-1.9,8.1-4.6c0-2.9-2.6-4.1-10.3-6c-11.4-2.8-17.9-7.3-17.9-17.5c0-11.7,9.1-18.3,21.8-18.3
				C429.2,79.8,435.7,82.5,441.1,86.8z"/>
			<path class="st0" d="M494.9,86.8c0.7,0.6,1,1.1,1,1.6s-0.2,1.1-0.6,1.6l-4.4,7c-0.5,0.7-1,1.1-1.6,1.1c-0.5,0-1-0.2-1.5-0.7
				c-3.9-2.9-8.2-4.9-13-4.9c-4.5,0-7,1.9-7,4.6c0,3.1,2.9,4.2,9.6,5.8c12.3,3,18.6,7.8,18.6,17.5c0,11.6-9.1,18.4-22.8,18.4
				c-8.5,0-15.5-2.7-20.8-6.9c-0.8-0.6-1.2-1.2-1.2-1.9c0-0.6,0.2-1.1,0.6-1.8l4.2-6.8c0.5-0.8,1-1.2,1.6-1.2c0.4,0,0.9,0.2,1.6,0.7
				c3.7,2.9,8.8,5,13.9,5c5.4,0,8.1-1.9,8.1-4.6c0-2.9-2.6-4.1-10.3-6c-11.4-2.8-17.9-7.3-17.9-17.5c0-11.7,9.1-18.3,21.8-18.3
				C483,79.8,489.5,82.5,494.9,86.8z"/>
		</g>
		<g>
			<path class="st0" d="M499.3,81.8v-1.6c0-0.3,0.1-0.4,0.4-0.4h6.8c0.3,0,0.4,0.1,0.4,0.4v1.6c0,0.3-0.1,0.4-0.4,0.4h-1.9
				c-0.2,0-0.2,0-0.2,0.2V88c0,0.3-0.1,0.4-0.4,0.4h-1.7c-0.3,0-0.4-0.1-0.4-0.4v-5.6c0-0.2,0-0.2-0.2-0.2h-1.9
				C499.4,82.2,499.3,82.1,499.3,81.8z M510.1,88.1c0,0.3-0.1,0.4-0.4,0.4H508c-0.3,0-0.4-0.1-0.4-0.4v-7.9c0-0.3,0.1-0.5,0.3-0.5
				s0.3,0.1,0.6,0.4l3.8,3.7l3.8-3.7c0.2-0.2,0.4-0.4,0.6-0.4c0.2,0,0.3,0.2,0.3,0.5v7.9c0,0.3-0.1,0.4-0.4,0.4h-1.7
				c-0.3,0-0.4-0.1-0.4-0.4v-3.4l-1.7,1.7c-0.2,0.2-0.4,0.3-0.5,0.3s-0.2-0.1-0.5-0.3l-1.7-1.7L510.1,88.1L510.1,88.1z"/>
		</g>
	</g>
	<g>
		<path class="st0" d="M14.5,41.7v15.1c0,1.5-0.7,2.1-2.2,2.1H2.4c-1.5,0-2.1-0.7-2.1-2.1V3.9c0-1.5,0.7-2.1,2.1-2.1h20.1
			c16.1,0,24.1,6.4,24.1,18.8c0,8.2-3.9,13.5-9.9,16.6l12.6,19.2c0.4,0.6,0.6,1.1,0.6,1.5c0,0.7-0.7,1.1-1.9,1.1H37
			c-2.3,0-3.3-0.7-4.5-2.4l-9.2-14.8c-0.6-0.9-1.1-1.1-2.1-1.1h-5.5C14.8,40.5,14.5,40.7,14.5,41.7z M14.5,16.1v10.7
			c0,1,0.2,1.3,1.2,1.3h6.2c6.9,0,10-2.3,10-6.8c0-4.7-3.4-6.4-10-6.4h-6.2C14.8,14.9,14.5,15.2,14.5,16.1z"/>
		<path class="st0" d="M88.7,0.8c17.8,0,30.6,12.3,30.6,29.6c0,17.4-12.9,29.6-30.8,29.6C71,60,58.2,47.8,58.2,30.6
			C58.2,13.2,71.1,0.8,88.7,0.8z M88.6,46.9c9,0,16-6.6,16-16.5c0-10.1-6.9-16.6-15.9-16.6c-9.1,0-15.8,6.6-15.8,16.6
			C72.9,40.4,79.6,46.9,88.6,46.9z"/>
		<path class="st0" d="M160.6,0.8c17.8,0,30.6,12.3,30.6,29.6c0,17.4-12.9,29.6-30.8,29.6c-17.5,0-30.3-12.2-30.3-29.5
			S143,0.8,160.6,0.8z M160.5,46.9c9,0,16-6.6,16-16.5c0-10.1-6.9-16.6-15.9-16.6c-9.1,0-15.8,6.6-15.8,16.6S151.5,46.9,160.5,46.9z
			"/>
		<path class="st0" d="M244.9,14.9H232c-0.9,0-1.2,0.3-1.2,1.2v40.7c0,1.5-0.7,2.1-2.1,2.1h-10c-1.5,0-2.1-0.7-2.1-2.1V16.1
			c0-0.9-0.3-1.2-1.2-1.2h-12.9c-1.5,0-2.1-0.6-2.1-2.1V4c0-1.5,0.7-2.1,2.1-2.1h42.4c1.5,0,2.1,0.7,2.1,2.1v8.8
			C247,14.2,246.3,14.9,244.9,14.9z"/>
		<path class="st0" d="M297.9,48v8.8c0,1.5-0.7,2.1-2.2,2.1h-34.3c-1.5,0-2.1-0.7-2.1-2.1V3.9c0-1.5,0.7-2.1,2.1-2.1h34.3
			c1.5,0,2.2,0.7,2.2,2.1v8.8c0,1.6-0.7,2.1-2.2,2.1h-21c-1,0-1.2,0.3-1.2,1.2v6.4c0,1,0.2,1.2,1.2,1.2H293c1.5,0,2.1,0.7,2.1,2.2
			v8.7c0,1.5-0.7,2.1-2.1,2.1h-18.3c-1,0-1.2,0.3-1.2,1.2v6.7c0,0.9,0.2,1.2,1.2,1.2h21C297.1,45.9,297.9,46.4,297.9,48z"/>
		<path class="st0" d="M314.5,1.8h20.1c20,0,31.2,11,31.2,27.9c0,17.8-11.9,29.2-32.6,29.2h-18.7c-1.5,0-2.1-0.7-2.1-2.1V3.9
			C312.4,2.5,313.1,1.8,314.5,1.8z M326.6,16.1v28.6c0,0.9,0.2,1.2,1.2,1.2h5.3c11.9,0,18-6,18-15.7c0-9.2-6.1-15.3-17.7-15.3h-5.6
			C326.9,14.9,326.6,15.2,326.6,16.1z"/>
		<path class="st0" d="M419.1,58.9h-9.9c-1.5,0-2.1-0.7-2.1-2.1V3.9c0-1.5,0.7-2.1,2.1-2.1h9.9c1.5,0,2.2,0.7,2.2,2.1v52.9
			C421.3,58.3,420.6,58.9,419.1,58.9z"/>
		<path class="st0" d="M476.1,1.8h9.9c1.5,0,2.2,0.7,2.2,2.1v52.9c0,2-0.6,3.2-2,3.2c-1.1,0-2.3-0.8-4.2-2.7l-29.4-27.6v27.1
			c0,1.5-0.7,2.1-2.2,2.1h-9.9c-1.5,0-2.1-0.7-2.1-2.1V3.9c0-2,0.6-3.2,2-3.2c1.1,0,2.3,0.8,4.2,2.7L474,31V3.9
			C474,2.5,474.6,1.8,476.1,1.8z"/>
	</g>
</g>
</svg>
